<?xml version="1.0" encoding="utf-8" standalone="no"?>
<!DOCTYPE svg PUBLIC "-//W3C//DTD SVG 1.1//EN"
  "http://www.w3.org/Graphics/SVG/1.1/DTD/svg11.dtd">
<svg xmlns:xlink="http://www.w3.org/1999/xlink" width="964.243437pt" height="413.460289pt" viewBox="0 0 964.243437 413.460289" xmlns="http://www.w3.org/2000/svg" version="1.1">
 <metadata>
  <rdf:RDF xmlns:dc="http://purl.org/dc/elements/1.1/" xmlns:cc="http://creativecommons.org/ns#" xmlns:rdf="http://www.w3.org/1999/02/22-rdf-syntax-ns#">
   <cc:Work>
    <dc:type rdf:resource="http://purl.org/dc/dcmitype/StillImage"/>
    <dc:date>2026-10-02T16:10:20.556503</dc:date>
    <dc:format>image/svg+xml</dc:format>
    <dc:creator>
     <cc:Agent>
      <dc:title>Matplotlib v3.11.2, https://matplotlib.org/</dc:title>
     </cc:Agent>
    </dc:creator>
   </cc:Work>
  </rdf:RDF>
 </metadata>
 <defs>
  <style type="text/css">*{stroke-linejoin: round; stroke-linecap: butt}</style>
 </defs>
 <g id="figure_1">
  <g id="patch_1">
   <path d="M 0 413.460289 
L 964.243438 413.460289 
L 964.243438 -0 
L 0 -0 
z
" style="fill: #ffffff"/>
  </g>
  <g id="axes_1">
   <g id="patch_2">
    <path d="M 40.925781 376.455836 
L 475.623609 376.455836 
L 475.623609 63.844117 
L 40.925781 63.844117 
z
" style="fill: #ffffff"/>
   </g>
   <g id="patch_3">
    <path d="M 60.684773 376.455836 
L 87.866456 376.455836 
L 87.866456 137.212174 
L 60.684773 137.212174 
z
" clip-path="url(#p7e61152c4c)" style="fill: #c0392b"/>
   </g>
   <g id="patch_4">
    <path d="M 165.229705 376.455836 
L 192.411388 376.455836 
L 192.411388 230.251376 
L 165.229705 230.251376 
z
" clip-path="url(#p7e61152c4c)" style="fill: #c0392b"/>
   </g>
   <g id="patch_5">
    <path d="M 269.774637 376.455836 
L 296.95632 376.455836 
L 296.95632 127.46521 
L 269.774637 127.46521 
z
" clip-path="url(#p7e61152c4c)" style="fill: #c0392b"/>
   </g>
   <g id="patch_6">
    <path d="M 374.31957 376.455836 
L 401.501252 376.455836 
L 401.501252 230.251376 
L 374.31957 230.251376 
z
" clip-path="url(#p7e61152c4c)" style="fill: #c0392b"/>
   </g>
   <g id="patch_7">
    <path d="M 87.866456 376.455836 
L 115.048138 376.455836 
L 115.048138 100.88258 
L 87.866456 100.88258 
z
" clip-path="url(#p7e61152c4c)" style="fill: #1f77b4"/>
   </g>
   <g id="patch_8">
    <path d="M 192.411388 376.455836 
L 219.59307 376.455836 
L 219.59307 201.896571 
L 192.411388 201.896571 
z
" clip-path="url(#p7e61152c4c)" style="fill: #1f77b4"/>
   </g>
   <g id="patch_9">
    <path d="M 296.95632 376.455836 
L 324.138002 376.455836 
L 324.138002 78.73039 
L 296.95632 78.73039 
z
" clip-path="url(#p7e61152c4c)" style="fill: #1f77b4"/>
   </g>
   <g id="patch_10">
    <path d="M 401.501252 376.455836 
L 428.682934 376.455836 
L 428.682934 200.124396 
L 401.501252 200.124396 
z
" clip-path="url(#p7e61152c4c)" style="fill: #1f77b4"/>
   </g>
   <g id="patch_11">
    <path d="M 115.048138 376.455836 
L 142.22982 376.455836 
L 142.22982 130.123473 
L 115.048138 130.123473 
z
" clip-path="url(#p7e61152c4c)" style="fill: #7f8c8d"/>
   </g>
   <g id="patch_12">
    <path d="M 219.59307 376.455836 
L 246.774752 376.455836 
L 246.774752 232.909639 
L 219.59307 232.909639 
z
" clip-path="url(#p7e61152c4c)" style="fill: #7f8c8d"/>
   </g>
   <g id="patch_13">
    <path d="M 324.138002 376.455836 
L 351.319684 376.455836 
L 351.319684 165.566978 
L 324.138002 165.566978 
z
" clip-path="url(#p7e61152c4c)" style="fill: #7f8c8d"/>
   </g>
   <g id="patch_14">
    <path d="M 428.682934 376.455836 
L 455.864617 376.455836 
L 455.864617 259.492268 
L 428.682934 259.492268 
z
" clip-path="url(#p7e61152c4c)" style="fill: #7f8c8d"/>
   </g>
   <g id="matplotlib.axis_1">
    <g id="xtick_1">
     <g id="line2d_1">
      <defs>
       <path id="m1665f9979a" d="M 0 0 
L 0 3.5 
" style="stroke: #000000; stroke-width: 0.8"/>
      </defs>
      <g>
       <use xlink:href="#m1665f9979a" x="101.457297" y="376.455836" style="stroke: #000000; stroke-width: 0.8"/>
      </g>
     </g>
     <g id="text_1">
      <!-- mq3  8 of 32 spilled -->
      <g transform="translate(54.212609 391.625279) scale(0.095 -0.095)">
       <defs>
        <path id="DejaVuSans-50" d="M 3328 2828 
Q 3544 3216 3844 3400 
Q 4144 3584 4550 3584 
Q 5097 3584 5394 3201 
Q 5691 2819 5691 2113 
L 5691 0 
L 5113 0 
L 5113 2094 
Q 5113 2597 4934 2840 
Q 4756 3084 4391 3084 
Q 3944 3084 3684 2787 
Q 3425 2491 3425 1978 
L 3425 0 
L 2847 0 
L 2847 2094 
Q 2847 2600 2669 2842 
Q 2491 3084 2119 3084 
Q 1678 3084 1418 2786 
Q 1159 2488 1159 1978 
L 1159 0 
L 581 0 
L 581 3500 
L 1159 3500 
L 1159 2956 
Q 1356 3278 1631 3431 
Q 1906 3584 2284 3584 
Q 2666 3584 2933 3390 
Q 3200 3197 3328 2828 
z
" transform="scale(0.015625)"/>
        <path id="DejaVuSans-54" d="M 947 1747 
Q 947 1113 1208 752 
Q 1469 391 1925 391 
Q 2381 391 2643 752 
Q 2906 1113 2906 1747 
Q 2906 2381 2643 2742 
Q 2381 3103 1925 3103 
Q 1469 3103 1208 2742 
Q 947 2381 947 1747 
z
M 2906 525 
Q 2725 213 2448 61 
Q 2172 -91 1784 -91 
Q 1150 -91 751 415 
Q 353 922 353 1747 
Q 353 2572 751 3078 
Q 1150 3584 1784 3584 
Q 2172 3584 2448 3432 
Q 2725 3281 2906 2969 
L 2906 3500 
L 3481 3500 
L 3481 -1331 
L 2906 -1331 
L 2906 525 
z
" transform="scale(0.015625)"/>
        <path id="DejaVuSans-16" d="M 2597 2516 
Q 3050 2419 3304 2112 
Q 3559 1806 3559 1356 
Q 3559 666 3084 287 
Q 2609 -91 1734 -91 
Q 1441 -91 1130 -33 
Q 819 25 488 141 
L 488 750 
Q 750 597 1062 519 
Q 1375 441 1716 441 
Q 2309 441 2620 675 
Q 2931 909 2931 1356 
Q 2931 1769 2642 2001 
Q 2353 2234 1838 2234 
L 1294 2234 
L 1294 2753 
L 1863 2753 
Q 2328 2753 2575 2939 
Q 2822 3125 2822 3475 
Q 2822 3834 2567 4026 
Q 2313 4219 1838 4219 
Q 1578 4219 1281 4162 
Q 984 4106 628 3988 
L 628 4550 
Q 988 4650 1302 4700 
Q 1616 4750 1894 4750 
Q 2613 4750 3031 4423 
Q 3450 4097 3450 3541 
Q 3450 3153 3228 2886 
Q 3006 2619 2597 2516 
z
" transform="scale(0.015625)"/>
        <path id="DejaVuSans-3" transform="scale(0.015625)"/>
        <path id="DejaVuSans-1b" d="M 2034 2216 
Q 1584 2216 1326 1975 
Q 1069 1734 1069 1313 
Q 1069 891 1326 650 
Q 1584 409 2034 409 
Q 2484 409 2743 651 
Q 3003 894 3003 1313 
Q 3003 1734 2745 1975 
Q 2488 2216 2034 2216 
z
M 1403 2484 
Q 997 2584 770 2862 
Q 544 3141 544 3541 
Q 544 4100 942 4425 
Q 1341 4750 2034 4750 
Q 2731 4750 3128 4425 
Q 3525 4100 3525 3541 
Q 3525 3141 3298 2862 
Q 3072 2584 2669 2484 
Q 3125 2378 3379 2068 
Q 3634 1759 3634 1313 
Q 3634 634 3220 271 
Q 2806 -91 2034 -91 
Q 1263 -91 848 271 
Q 434 634 434 1313 
Q 434 1759 690 2068 
Q 947 2378 1403 2484 
z
M 1172 3481 
Q 1172 3119 1398 2916 
Q 1625 2713 2034 2713 
Q 2441 2713 2670 2916 
Q 2900 3119 2900 3481 
Q 2900 3844 2670 4047 
Q 2441 4250 2034 4250 
Q 1625 4250 1398 4047 
Q 1172 3844 1172 3481 
z
" transform="scale(0.015625)"/>
        <path id="DejaVuSans-52" d="M 1959 3097 
Q 1497 3097 1228 2736 
Q 959 2375 959 1747 
Q 959 1119 1226 758 
Q 1494 397 1959 397 
Q 2419 397 2687 759 
Q 2956 1122 2956 1747 
Q 2956 2369 2687 2733 
Q 2419 3097 1959 3097 
z
M 1959 3584 
Q 2709 3584 3137 3096 
Q 3566 2609 3566 1747 
Q 3566 888 3137 398 
Q 2709 -91 1959 -91 
Q 1206 -91 779 398 
Q 353 888 353 1747 
Q 353 2609 779 3096 
Q 1206 3584 1959 3584 
z
" transform="scale(0.015625)"/>
        <path id="DejaVuSans-49" d="M 2375 4863 
L 2375 4384 
L 1825 4384 
Q 1516 4384 1395 4259 
Q 1275 4134 1275 3809 
L 1275 3500 
L 2222 3500 
L 2222 3053 
L 1275 3053 
L 1275 0 
L 697 0 
L 697 3053 
L 147 3053 
L 147 3500 
L 697 3500 
L 697 3744 
Q 697 4328 969 4595 
Q 1241 4863 1831 4863 
L 2375 4863 
z
" transform="scale(0.015625)"/>
        <path id="DejaVuSans-15" d="M 1228 531 
L 3431 531 
L 3431 0 
L 469 0 
L 469 531 
Q 828 903 1448 1529 
Q 2069 2156 2228 2338 
Q 2531 2678 2651 2914 
Q 2772 3150 2772 3378 
Q 2772 3750 2511 3984 
Q 2250 4219 1831 4219 
Q 1534 4219 1204 4116 
Q 875 4013 500 3803 
L 500 4441 
Q 881 4594 1212 4672 
Q 1544 4750 1819 4750 
Q 2544 4750 2975 4387 
Q 3406 4025 3406 3419 
Q 3406 3131 3298 2873 
Q 3191 2616 2906 2266 
Q 2828 2175 2409 1742 
Q 1991 1309 1228 531 
z
" transform="scale(0.015625)"/>
        <path id="DejaVuSans-56" d="M 2834 3397 
L 2834 2853 
Q 2591 2978 2328 3040 
Q 2066 3103 1784 3103 
Q 1356 3103 1142 2972 
Q 928 2841 928 2578 
Q 928 2378 1081 2264 
Q 1234 2150 1697 2047 
L 1894 2003 
Q 2506 1872 2764 1633 
Q 3022 1394 3022 966 
Q 3022 478 2636 193 
Q 2250 -91 1575 -91 
Q 1294 -91 989 -36 
Q 684 19 347 128 
L 347 722 
Q 666 556 975 473 
Q 1284 391 1588 391 
Q 1994 391 2212 530 
Q 2431 669 2431 922 
Q 2431 1156 2273 1281 
Q 2116 1406 1581 1522 
L 1381 1569 
Q 847 1681 609 1914 
Q 372 2147 372 2553 
Q 372 3047 722 3315 
Q 1072 3584 1716 3584 
Q 2034 3584 2315 3537 
Q 2597 3491 2834 3397 
z
" transform="scale(0.015625)"/>
        <path id="DejaVuSans-53" d="M 1159 525 
L 1159 -1331 
L 581 -1331 
L 581 3500 
L 1159 3500 
L 1159 2969 
Q 1341 3281 1617 3432 
Q 1894 3584 2278 3584 
Q 2916 3584 3314 3078 
Q 3713 2572 3713 1747 
Q 3713 922 3314 415 
Q 2916 -91 2278 -91 
Q 1894 -91 1617 61 
Q 1341 213 1159 525 
z
M 3116 1747 
Q 3116 2381 2855 2742 
Q 2594 3103 2138 3103 
Q 1681 3103 1420 2742 
Q 1159 2381 1159 1747 
Q 1159 1113 1420 752 
Q 1681 391 2138 391 
Q 2594 391 2855 752 
Q 3116 1113 3116 1747 
z
" transform="scale(0.015625)"/>
        <path id="DejaVuSans-4c" d="M 603 3500 
L 1178 3500 
L 1178 0 
L 603 0 
L 603 3500 
z
M 603 4863 
L 1178 4863 
L 1178 4134 
L 603 4134 
L 603 4863 
z
" transform="scale(0.015625)"/>
        <path id="DejaVuSans-4f" d="M 603 4863 
L 1178 4863 
L 1178 0 
L 603 0 
L 603 4863 
z
" transform="scale(0.015625)"/>
        <path id="DejaVuSans-48" d="M 3597 1894 
L 3597 1613 
L 953 1613 
Q 991 1019 1311 708 
Q 1631 397 2203 397 
Q 2534 397 2845 478 
Q 3156 559 3463 722 
L 3463 178 
Q 3153 47 2828 -22 
Q 2503 -91 2169 -91 
Q 1331 -91 842 396 
Q 353 884 353 1716 
Q 353 2575 817 3079 
Q 1281 3584 2069 3584 
Q 2775 3584 3186 3129 
Q 3597 2675 3597 1894 
z
M 3022 2063 
Q 3016 2534 2758 2815 
Q 2500 3097 2075 3097 
Q 1594 3097 1305 2825 
Q 1016 2553 972 2059 
L 3022 2063 
z
" transform="scale(0.015625)"/>
        <path id="DejaVuSans-47" d="M 2906 2969 
L 2906 4863 
L 3481 4863 
L 3481 0 
L 2906 0 
L 2906 525 
Q 2725 213 2448 61 
Q 2172 -91 1784 -91 
Q 1150 -91 751 415 
Q 353 922 353 1747 
Q 353 2572 751 3078 
Q 1150 3584 1784 3584 
Q 2172 3584 2448 3432 
Q 2725 3281 2906 2969 
z
M 947 1747 
Q 947 1113 1208 752 
Q 1469 391 1925 391 
Q 2381 391 2643 752 
Q 2906 1113 2906 1747 
Q 2906 2381 2643 2742 
Q 2381 3103 1925 3103 
Q 1469 3103 1208 2742 
Q 947 2381 947 1747 
z
" transform="scale(0.015625)"/>
       </defs>
       <use xlink:href="#DejaVuSans-50"/>
       <use xlink:href="#DejaVuSans-54" transform="translate(97.40625 0)"/>
       <use xlink:href="#DejaVuSans-16" transform="translate(160.890625 0)"/>
       <use xlink:href="#DejaVuSans-3" transform="translate(224.515625 0)"/>
       <use xlink:href="#DejaVuSans-3" transform="translate(256.296875 0)"/>
       <use xlink:href="#DejaVuSans-1b" transform="translate(288.078125 0)"/>
       <use xlink:href="#DejaVuSans-3" transform="translate(351.703125 0)"/>
       <use xlink:href="#DejaVuSans-52" transform="translate(383.484375 0)"/>
       <use xlink:href="#DejaVuSans-49" transform="translate(444.671875 0)"/>
       <use xlink:href="#DejaVuSans-3" transform="translate(479.875 0)"/>
       <use xlink:href="#DejaVuSans-16" transform="translate(511.65625 0)"/>
       <use xlink:href="#DejaVuSans-15" transform="translate(575.28125 0)"/>
       <use xlink:href="#DejaVuSans-3" transform="translate(638.90625 0)"/>
       <use xlink:href="#DejaVuSans-56" transform="translate(670.6875 0)"/>
       <use xlink:href="#DejaVuSans-53" transform="translate(722.78125 0)"/>
       <use xlink:href="#DejaVuSans-4c" transform="translate(786.265625 0)"/>
       <use xlink:href="#DejaVuSans-4f" transform="translate(814.046875 0)"/>
       <use xlink:href="#DejaVuSans-4f" transform="translate(841.828125 0)"/>
       <use xlink:href="#DejaVuSans-48" transform="translate(869.609375 0)"/>
       <use xlink:href="#DejaVuSans-47" transform="translate(931.140625 0)"/>
      </g>
      <!-- (25%) -->
      <g transform="translate(87.193195 403.027135) scale(0.095 -0.095)">
       <defs>
        <path id="DejaVuSans-b" d="M 1984 4856 
Q 1566 4138 1362 3434 
Q 1159 2731 1159 2009 
Q 1159 1288 1364 580 
Q 1569 -128 1984 -844 
L 1484 -844 
Q 1016 -109 783 600 
Q 550 1309 550 2009 
Q 550 2706 781 3412 
Q 1013 4119 1484 4856 
L 1984 4856 
z
" transform="scale(0.015625)"/>
        <path id="DejaVuSans-18" d="M 691 4666 
L 3169 4666 
L 3169 4134 
L 1269 4134 
L 1269 2991 
Q 1406 3038 1543 3061 
Q 1681 3084 1819 3084 
Q 2600 3084 3056 2656 
Q 3513 2228 3513 1497 
Q 3513 744 3044 326 
Q 2575 -91 1722 -91 
Q 1428 -91 1123 -41 
Q 819 9 494 109 
L 494 744 
Q 775 591 1075 516 
Q 1375 441 1709 441 
Q 2250 441 2565 725 
Q 2881 1009 2881 1497 
Q 2881 1984 2565 2268 
Q 2250 2553 1709 2553 
Q 1456 2553 1204 2497 
Q 953 2441 691 2322 
L 691 4666 
z
" transform="scale(0.015625)"/>
        <path id="DejaVuSans-8" d="M 4653 2053 
Q 4381 2053 4226 1822 
Q 4072 1591 4072 1178 
Q 4072 772 4226 539 
Q 4381 306 4653 306 
Q 4919 306 5073 539 
Q 5228 772 5228 1178 
Q 5228 1588 5073 1820 
Q 4919 2053 4653 2053 
z
M 4653 2450 
Q 5147 2450 5437 2106 
Q 5728 1763 5728 1178 
Q 5728 594 5436 251 
Q 5144 -91 4653 -91 
Q 4153 -91 3862 251 
Q 3572 594 3572 1178 
Q 3572 1766 3864 2108 
Q 4156 2450 4653 2450 
z
M 1428 4353 
Q 1159 4353 1004 4120 
Q 850 3888 850 3481 
Q 850 3069 1003 2837 
Q 1156 2606 1428 2606 
Q 1700 2606 1854 2837 
Q 2009 3069 2009 3481 
Q 2009 3884 1853 4118 
Q 1697 4353 1428 4353 
z
M 4250 4750 
L 4750 4750 
L 1831 -91 
L 1331 -91 
L 4250 4750 
z
M 1428 4750 
Q 1922 4750 2215 4408 
Q 2509 4066 2509 3481 
Q 2509 2891 2217 2550 
Q 1925 2209 1428 2209 
Q 931 2209 642 2551 
Q 353 2894 353 3481 
Q 353 4063 643 4406 
Q 934 4750 1428 4750 
z
" transform="scale(0.015625)"/>
        <path id="DejaVuSans-c" d="M 513 4856 
L 1013 4856 
Q 1481 4119 1714 3412 
Q 1947 2706 1947 2009 
Q 1947 1309 1714 600 
Q 1481 -109 1013 -844 
L 513 -844 
Q 928 -128 1133 580 
Q 1338 1288 1338 2009 
Q 1338 2731 1133 3434 
Q 928 4138 513 4856 
z
" transform="scale(0.015625)"/>
       </defs>
       <use xlink:href="#DejaVuSans-b"/>
       <use xlink:href="#DejaVuSans-15" transform="translate(39.015625 0)"/>
       <use xlink:href="#DejaVuSans-18" transform="translate(102.640625 0)"/>
       <use xlink:href="#DejaVuSans-8" transform="translate(166.265625 0)"/>
       <use xlink:href="#DejaVuSans-c" transform="translate(261.28125 0)"/>
      </g>
     </g>
    </g>
    <g id="xtick_2">
     <g id="line2d_2">
      <g>
       <use xlink:href="#m1665f9979a" x="206.002229" y="376.455836" style="stroke: #000000; stroke-width: 0.8"/>
      </g>
     </g>
     <g id="text_2">
      <!-- mq3  16 of 32 spilled -->
      <g transform="translate(155.735354 391.625279) scale(0.095 -0.095)">
       <defs>
        <path id="DejaVuSans-14" d="M 794 531 
L 1825 531 
L 1825 4091 
L 703 3866 
L 703 4441 
L 1819 4666 
L 2450 4666 
L 2450 531 
L 3481 531 
L 3481 0 
L 794 0 
L 794 531 
z
" transform="scale(0.015625)"/>
        <path id="DejaVuSans-19" d="M 2113 2584 
Q 1688 2584 1439 2293 
Q 1191 2003 1191 1497 
Q 1191 994 1439 701 
Q 1688 409 2113 409 
Q 2538 409 2786 701 
Q 3034 994 3034 1497 
Q 3034 2003 2786 2293 
Q 2538 2584 2113 2584 
z
M 3366 4563 
L 3366 3988 
Q 3128 4100 2886 4159 
Q 2644 4219 2406 4219 
Q 1781 4219 1451 3797 
Q 1122 3375 1075 2522 
Q 1259 2794 1537 2939 
Q 1816 3084 2150 3084 
Q 2853 3084 3261 2657 
Q 3669 2231 3669 1497 
Q 3669 778 3244 343 
Q 2819 -91 2113 -91 
Q 1303 -91 875 529 
Q 447 1150 447 2328 
Q 447 3434 972 4092 
Q 1497 4750 2381 4750 
Q 2619 4750 2861 4703 
Q 3103 4656 3366 4563 
z
" transform="scale(0.015625)"/>
       </defs>
       <use xlink:href="#DejaVuSans-50"/>
       <use xlink:href="#DejaVuSans-54" transform="translate(97.40625 0)"/>
       <use xlink:href="#DejaVuSans-16" transform="translate(160.890625 0)"/>
       <use xlink:href="#DejaVuSans-3" transform="translate(224.515625 0)"/>
       <use xlink:href="#DejaVuSans-3" transform="translate(256.296875 0)"/>
       <use xlink:href="#DejaVuSans-14" transform="translate(288.078125 0)"/>
       <use xlink:href="#DejaVuSans-19" transform="translate(351.703125 0)"/>
       <use xlink:href="#DejaVuSans-3" transform="translate(415.328125 0)"/>
       <use xlink:href="#DejaVuSans-52" transform="translate(447.109375 0)"/>
       <use xlink:href="#DejaVuSans-49" transform="translate(508.296875 0)"/>
       <use xlink:href="#DejaVuSans-3" transform="translate(543.5 0)"/>
       <use xlink:href="#DejaVuSans-16" transform="translate(575.28125 0)"/>
       <use xlink:href="#DejaVuSans-15" transform="translate(638.90625 0)"/>
       <use xlink:href="#DejaVuSans-3" transform="translate(702.53125 0)"/>
       <use xlink:href="#DejaVuSans-56" transform="translate(734.3125 0)"/>
       <use xlink:href="#DejaVuSans-53" transform="translate(786.40625 0)"/>
       <use xlink:href="#DejaVuSans-4c" transform="translate(849.890625 0)"/>
       <use xlink:href="#DejaVuSans-4f" transform="translate(877.671875 0)"/>
       <use xlink:href="#DejaVuSans-4f" transform="translate(905.453125 0)"/>
       <use xlink:href="#DejaVuSans-48" transform="translate(933.234375 0)"/>
       <use xlink:href="#DejaVuSans-47" transform="translate(994.765625 0)"/>
      </g>
      <!-- (50%) -->
      <g transform="translate(191.738127 403.027135) scale(0.095 -0.095)">
       <defs>
        <path id="DejaVuSans-13" d="M 2034 4250 
Q 1547 4250 1301 3770 
Q 1056 3291 1056 2328 
Q 1056 1369 1301 889 
Q 1547 409 2034 409 
Q 2525 409 2770 889 
Q 3016 1369 3016 2328 
Q 3016 3291 2770 3770 
Q 2525 4250 2034 4250 
z
M 2034 4750 
Q 2819 4750 3233 4129 
Q 3647 3509 3647 2328 
Q 3647 1150 3233 529 
Q 2819 -91 2034 -91 
Q 1250 -91 836 529 
Q 422 1150 422 2328 
Q 422 3509 836 4129 
Q 1250 4750 2034 4750 
z
" transform="scale(0.015625)"/>
       </defs>
       <use xlink:href="#DejaVuSans-b"/>
       <use xlink:href="#DejaVuSans-18" transform="translate(39.015625 0)"/>
       <use xlink:href="#DejaVuSans-13" transform="translate(102.640625 0)"/>
       <use xlink:href="#DejaVuSans-8" transform="translate(166.265625 0)"/>
       <use xlink:href="#DejaVuSans-c" transform="translate(261.28125 0)"/>
      </g>
     </g>
    </g>
    <g id="xtick_3">
     <g id="line2d_3">
      <g>
       <use xlink:href="#m1665f9979a" x="310.547161" y="376.455836" style="stroke: #000000; stroke-width: 0.8"/>
      </g>
     </g>
     <g id="text_3">
      <!-- mq4  8 of 32 spilled -->
      <g transform="translate(263.302473 391.625279) scale(0.095 -0.095)">
       <defs>
        <path id="DejaVuSans-17" d="M 2419 4116 
L 825 1625 
L 2419 1625 
L 2419 4116 
z
M 2253 4666 
L 3047 4666 
L 3047 1625 
L 3713 1625 
L 3713 1100 
L 3047 1100 
L 3047 0 
L 2419 0 
L 2419 1100 
L 313 1100 
L 313 1709 
L 2253 4666 
z
" transform="scale(0.015625)"/>
       </defs>
       <use xlink:href="#DejaVuSans-50"/>
       <use xlink:href="#DejaVuSans-54" transform="translate(97.40625 0)"/>
       <use xlink:href="#DejaVuSans-17" transform="translate(160.890625 0)"/>
       <use xlink:href="#DejaVuSans-3" transform="translate(224.515625 0)"/>
       <use xlink:href="#DejaVuSans-3" transform="translate(256.296875 0)"/>
       <use xlink:href="#DejaVuSans-1b" transform="translate(288.078125 0)"/>
       <use xlink:href="#DejaVuSans-3" transform="translate(351.703125 0)"/>
       <use xlink:href="#DejaVuSans-52" transform="translate(383.484375 0)"/>
       <use xlink:href="#DejaVuSans-49" transform="translate(444.671875 0)"/>
       <use xlink:href="#DejaVuSans-3" transform="translate(479.875 0)"/>
       <use xlink:href="#DejaVuSans-16" transform="translate(511.65625 0)"/>
       <use xlink:href="#DejaVuSans-15" transform="translate(575.28125 0)"/>
       <use xlink:href="#DejaVuSans-3" transform="translate(638.90625 0)"/>
       <use xlink:href="#DejaVuSans-56" transform="translate(670.6875 0)"/>
       <use xlink:href="#DejaVuSans-53" transform="translate(722.78125 0)"/>
       <use xlink:href="#DejaVuSans-4c" transform="translate(786.265625 0)"/>
       <use xlink:href="#DejaVuSans-4f" transform="translate(814.046875 0)"/>
       <use xlink:href="#DejaVuSans-4f" transform="translate(841.828125 0)"/>
       <use xlink:href="#DejaVuSans-48" transform="translate(869.609375 0)"/>
       <use xlink:href="#DejaVuSans-47" transform="translate(931.140625 0)"/>
      </g>
      <!-- (25%) -->
      <g transform="translate(296.283059 403.027135) scale(0.095 -0.095)">
       <use xlink:href="#DejaVuSans-b"/>
       <use xlink:href="#DejaVuSans-15" transform="translate(39.015625 0)"/>
       <use xlink:href="#DejaVuSans-18" transform="translate(102.640625 0)"/>
       <use xlink:href="#DejaVuSans-8" transform="translate(166.265625 0)"/>
       <use xlink:href="#DejaVuSans-c" transform="translate(261.28125 0)"/>
      </g>
     </g>
    </g>
    <g id="xtick_4">
     <g id="line2d_4">
      <g>
       <use xlink:href="#m1665f9979a" x="415.092093" y="376.455836" style="stroke: #000000; stroke-width: 0.8"/>
      </g>
     </g>
     <g id="text_4">
      <!-- mq4  16 of 32 spilled -->
      <g transform="translate(364.825218 391.625279) scale(0.095 -0.095)">
       <use xlink:href="#DejaVuSans-50"/>
       <use xlink:href="#DejaVuSans-54" transform="translate(97.40625 0)"/>
       <use xlink:href="#DejaVuSans-17" transform="translate(160.890625 0)"/>
       <use xlink:href="#DejaVuSans-3" transform="translate(224.515625 0)"/>
       <use xlink:href="#DejaVuSans-3" transform="translate(256.296875 0)"/>
       <use xlink:href="#DejaVuSans-14" transform="translate(288.078125 0)"/>
       <use xlink:href="#DejaVuSans-19" transform="translate(351.703125 0)"/>
       <use xlink:href="#DejaVuSans-3" transform="translate(415.328125 0)"/>
       <use xlink:href="#DejaVuSans-52" transform="translate(447.109375 0)"/>
       <use xlink:href="#DejaVuSans-49" transform="translate(508.296875 0)"/>
       <use xlink:href="#DejaVuSans-3" transform="translate(543.5 0)"/>
       <use xlink:href="#DejaVuSans-16" transform="translate(575.28125 0)"/>
       <use xlink:href="#DejaVuSans-15" transform="translate(638.90625 0)"/>
       <use xlink:href="#DejaVuSans-3" transform="translate(702.53125 0)"/>
       <use xlink:href="#DejaVuSans-56" transform="translate(734.3125 0)"/>
       <use xlink:href="#DejaVuSans-53" transform="translate(786.40625 0)"/>
       <use xlink:href="#DejaVuSans-4c" transform="translate(849.890625 0)"/>
       <use xlink:href="#DejaVuSans-4f" transform="translate(877.671875 0)"/>
       <use xlink:href="#DejaVuSans-4f" transform="translate(905.453125 0)"/>
       <use xlink:href="#DejaVuSans-48" transform="translate(933.234375 0)"/>
       <use xlink:href="#DejaVuSans-47" transform="translate(994.765625 0)"/>
      </g>
      <!-- (50%) -->
      <g transform="translate(400.827991 403.027135) scale(0.095 -0.095)">
       <use xlink:href="#DejaVuSans-b"/>
       <use xlink:href="#DejaVuSans-18" transform="translate(39.015625 0)"/>
       <use xlink:href="#DejaVuSans-13" transform="translate(102.640625 0)"/>
       <use xlink:href="#DejaVuSans-8" transform="translate(166.265625 0)"/>
       <use xlink:href="#DejaVuSans-c" transform="translate(261.28125 0)"/>
      </g>
     </g>
    </g>
   </g>
   <g id="matplotlib.axis_2">
    <g id="ytick_1">
     <g id="line2d_5">
      <path d="M 40.925781 376.455836 
L 475.623609 376.455836 
" clip-path="url(#p7e61152c4c)" style="fill: none; stroke: #b0b0b0; stroke-opacity: 0.3; stroke-width: 0.8; stroke-linecap: square"/>
     </g>
     <g id="line2d_6">
      <defs>
       <path id="m9f06ebee22" d="M 0 0 
L -3.5 0 
" style="stroke: #000000; stroke-width: 0.8"/>
      </defs>
      <g>
       <use xlink:href="#m9f06ebee22" x="40.925781" y="376.455836" style="stroke: #000000; stroke-width: 0.8"/>
      </g>
     </g>
     <g id="text_5">
      <!-- 0 -->
      <g transform="translate(27.563281 380.254664) scale(0.1 -0.1)">
       <use xlink:href="#DejaVuSans-13"/>
      </g>
     </g>
    </g>
    <g id="ytick_2">
     <g id="line2d_7">
      <path d="M 40.925781 332.151454 
L 475.623609 332.151454 
" clip-path="url(#p7e61152c4c)" style="fill: none; stroke: #b0b0b0; stroke-opacity: 0.3; stroke-width: 0.8; stroke-linecap: square"/>
     </g>
     <g id="line2d_8">
      <g>
       <use xlink:href="#m9f06ebee22" x="40.925781" y="332.151454" style="stroke: #000000; stroke-width: 0.8"/>
      </g>
     </g>
     <g id="text_6">
      <!-- 5 -->
      <g transform="translate(27.563281 335.950282) scale(0.1 -0.1)">
       <use xlink:href="#DejaVuSans-18"/>
      </g>
     </g>
    </g>
    <g id="ytick_3">
     <g id="line2d_9">
      <path d="M 40.925781 287.847072 
L 475.623609 287.847072 
" clip-path="url(#p7e61152c4c)" style="fill: none; stroke: #b0b0b0; stroke-opacity: 0.3; stroke-width: 0.8; stroke-linecap: square"/>
     </g>
     <g id="line2d_10">
      <g>
       <use xlink:href="#m9f06ebee22" x="40.925781" y="287.847072" style="stroke: #000000; stroke-width: 0.8"/>
      </g>
     </g>
     <g id="text_7">
      <!-- 10 -->
      <g transform="translate(21.200781 291.6459) scale(0.1 -0.1)">
       <use xlink:href="#DejaVuSans-14"/>
       <use xlink:href="#DejaVuSans-13" transform="translate(63.625 0)"/>
      </g>
     </g>
    </g>
    <g id="ytick_4">
     <g id="line2d_11">
      <path d="M 40.925781 243.54269 
L 475.623609 243.54269 
" clip-path="url(#p7e61152c4c)" style="fill: none; stroke: #b0b0b0; stroke-opacity: 0.3; stroke-width: 0.8; stroke-linecap: square"/>
     </g>
     <g id="line2d_12">
      <g>
       <use xlink:href="#m9f06ebee22" x="40.925781" y="243.54269" style="stroke: #000000; stroke-width: 0.8"/>
      </g>
     </g>
     <g id="text_8">
      <!-- 15 -->
      <g transform="translate(21.200781 247.341518) scale(0.1 -0.1)">
       <use xlink:href="#DejaVuSans-14"/>
       <use xlink:href="#DejaVuSans-18" transform="translate(63.625 0)"/>
      </g>
     </g>
    </g>
    <g id="ytick_5">
     <g id="line2d_13">
      <path d="M 40.925781 199.238308 
L 475.623609 199.238308 
" clip-path="url(#p7e61152c4c)" style="fill: none; stroke: #b0b0b0; stroke-opacity: 0.3; stroke-width: 0.8; stroke-linecap: square"/>
     </g>
     <g id="line2d_14">
      <g>
       <use xlink:href="#m9f06ebee22" x="40.925781" y="199.238308" style="stroke: #000000; stroke-width: 0.8"/>
      </g>
     </g>
     <g id="text_9">
      <!-- 20 -->
      <g transform="translate(21.200781 203.037136) scale(0.1 -0.1)">
       <use xlink:href="#DejaVuSans-15"/>
       <use xlink:href="#DejaVuSans-13" transform="translate(63.625 0)"/>
      </g>
     </g>
    </g>
    <g id="ytick_6">
     <g id="line2d_15">
      <path d="M 40.925781 154.933926 
L 475.623609 154.933926 
" clip-path="url(#p7e61152c4c)" style="fill: none; stroke: #b0b0b0; stroke-opacity: 0.3; stroke-width: 0.8; stroke-linecap: square"/>
     </g>
     <g id="line2d_16">
      <g>
       <use xlink:href="#m9f06ebee22" x="40.925781" y="154.933926" style="stroke: #000000; stroke-width: 0.8"/>
      </g>
     </g>
     <g id="text_10">
      <!-- 25 -->
      <g transform="translate(21.200781 158.732755) scale(0.1 -0.1)">
       <use xlink:href="#DejaVuSans-15"/>
       <use xlink:href="#DejaVuSans-18" transform="translate(63.625 0)"/>
      </g>
     </g>
    </g>
    <g id="ytick_7">
     <g id="line2d_17">
      <path d="M 40.925781 110.629544 
L 475.623609 110.629544 
" clip-path="url(#p7e61152c4c)" style="fill: none; stroke: #b0b0b0; stroke-opacity: 0.3; stroke-width: 0.8; stroke-linecap: square"/>
     </g>
     <g id="line2d_18">
      <g>
       <use xlink:href="#m9f06ebee22" x="40.925781" y="110.629544" style="stroke: #000000; stroke-width: 0.8"/>
      </g>
     </g>
     <g id="text_11">
      <!-- 30 -->
      <g transform="translate(21.200781 114.428373) scale(0.1 -0.1)">
       <use xlink:href="#DejaVuSans-16"/>
       <use xlink:href="#DejaVuSans-13" transform="translate(63.625 0)"/>
      </g>
     </g>
    </g>
    <g id="ytick_8">
     <g id="line2d_19">
      <path d="M 40.925781 66.325163 
L 475.623609 66.325163 
" clip-path="url(#p7e61152c4c)" style="fill: none; stroke: #b0b0b0; stroke-opacity: 0.3; stroke-width: 0.8; stroke-linecap: square"/>
     </g>
     <g id="line2d_20">
      <g>
       <use xlink:href="#m9f06ebee22" x="40.925781" y="66.325163" style="stroke: #000000; stroke-width: 0.8"/>
      </g>
     </g>
     <g id="text_12">
      <!-- 35 -->
      <g transform="translate(21.200781 70.123991) scale(0.1 -0.1)">
       <use xlink:href="#DejaVuSans-16"/>
       <use xlink:href="#DejaVuSans-18" transform="translate(63.625 0)"/>
      </g>
     </g>
    </g>
    <g id="text_13">
     <!-- decode tok/s -->
     <g transform="translate(14.798438 252.253102) rotate(-90) scale(0.1 -0.1)">
      <defs>
       <path id="DejaVuSans-46" d="M 3122 3366 
L 3122 2828 
Q 2878 2963 2633 3030 
Q 2388 3097 2138 3097 
Q 1578 3097 1268 2742 
Q 959 2388 959 1747 
Q 959 1106 1268 751 
Q 1578 397 2138 397 
Q 2388 397 2633 464 
Q 2878 531 3122 666 
L 3122 134 
Q 2881 22 2623 -34 
Q 2366 -91 2075 -91 
Q 1284 -91 818 406 
Q 353 903 353 1747 
Q 353 2603 823 3093 
Q 1294 3584 2113 3584 
Q 2378 3584 2631 3529 
Q 2884 3475 3122 3366 
z
" transform="scale(0.015625)"/>
       <path id="DejaVuSans-57" d="M 1172 4494 
L 1172 3500 
L 2356 3500 
L 2356 3053 
L 1172 3053 
L 1172 1153 
Q 1172 725 1289 603 
Q 1406 481 1766 481 
L 2356 481 
L 2356 0 
L 1766 0 
Q 1100 0 847 248 
Q 594 497 594 1153 
L 594 3053 
L 172 3053 
L 172 3500 
L 594 3500 
L 594 4494 
L 1172 4494 
z
" transform="scale(0.015625)"/>
       <path id="DejaVuSans-4e" d="M 581 4863 
L 1159 4863 
L 1159 1991 
L 2875 3500 
L 3609 3500 
L 1753 1863 
L 3688 0 
L 2938 0 
L 1159 1709 
L 1159 0 
L 581 0 
L 581 4863 
z
" transform="scale(0.015625)"/>
       <path id="DejaVuSans-12" d="M 1625 4666 
L 2156 4666 
L 531 -594 
L 0 -594 
L 1625 4666 
z
" transform="scale(0.015625)"/>
      </defs>
      <use xlink:href="#DejaVuSans-47"/>
      <use xlink:href="#DejaVuSans-48" transform="translate(63.484375 0)"/>
      <use xlink:href="#DejaVuSans-46" transform="translate(125.015625 0)"/>
      <use xlink:href="#DejaVuSans-52" transform="translate(180 0)"/>
      <use xlink:href="#DejaVuSans-47" transform="translate(241.1875 0)"/>
      <use xlink:href="#DejaVuSans-48" transform="translate(304.671875 0)"/>
      <use xlink:href="#DejaVuSans-3" transform="translate(366.203125 0)"/>
      <use xlink:href="#DejaVuSans-57" transform="translate(397.984375 0)"/>
      <use xlink:href="#DejaVuSans-52" transform="translate(437.1875 0)"/>
      <use xlink:href="#DejaVuSans-4e" transform="translate(498.375 0)"/>
      <use xlink:href="#DejaVuSans-12" transform="translate(556.28125 0)"/>
      <use xlink:href="#DejaVuSans-56" transform="translate(589.96875 0)"/>
     </g>
    </g>
   </g>
   <g id="patch_15">
    <path d="M 40.925781 376.455836 
L 40.925781 63.844117 
" style="fill: none; stroke: #000000; stroke-width: 0.8; stroke-linejoin: miter; stroke-linecap: square"/>
   </g>
   <g id="patch_16">
    <path d="M 475.623609 376.455836 
L 475.623609 63.844117 
" style="fill: none; stroke: #000000; stroke-width: 0.8; stroke-linejoin: miter; stroke-linecap: square"/>
   </g>
   <g id="patch_17">
    <path d="M 40.925781 376.455836 
L 475.623609 376.455836 
" style="fill: none; stroke: #000000; stroke-width: 0.8; stroke-linejoin: miter; stroke-linecap: square"/>
   </g>
   <g id="patch_18">
    <path d="M 40.925781 63.844117 
L 475.623609 63.844117 
" style="fill: none; stroke: #000000; stroke-width: 0.8; stroke-linejoin: miter; stroke-linecap: square"/>
   </g>
   <g id="text_14">
    <!-- 27.0 -->
    <g transform="translate(64.812724 134.212174) scale(0.085 -0.085)">
     <defs>
      <path id="DejaVuSans-1a" d="M 525 4666 
L 3525 4666 
L 3525 4397 
L 1831 0 
L 1172 0 
L 2766 4134 
L 525 4134 
L 525 4666 
z
" transform="scale(0.015625)"/>
      <path id="DejaVuSans-11" d="M 684 794 
L 1344 794 
L 1344 0 
L 684 0 
L 684 794 
z
" transform="scale(0.015625)"/>
     </defs>
     <use xlink:href="#DejaVuSans-15"/>
     <use xlink:href="#DejaVuSans-1a" transform="translate(63.625 0)"/>
     <use xlink:href="#DejaVuSans-11" transform="translate(127.25 0)"/>
     <use xlink:href="#DejaVuSans-13" transform="translate(159.03125 0)"/>
    </g>
   </g>
   <g id="text_15">
    <!-- 16.5 -->
    <g transform="translate(169.357656 227.251376) scale(0.085 -0.085)">
     <use xlink:href="#DejaVuSans-14"/>
     <use xlink:href="#DejaVuSans-19" transform="translate(63.625 0)"/>
     <use xlink:href="#DejaVuSans-11" transform="translate(127.25 0)"/>
     <use xlink:href="#DejaVuSans-18" transform="translate(159.03125 0)"/>
    </g>
   </g>
   <g id="text_16">
    <!-- 28.1 -->
    <g transform="translate(273.902588 124.46521) scale(0.085 -0.085)">
     <use xlink:href="#DejaVuSans-15"/>
     <use xlink:href="#DejaVuSans-1b" transform="translate(63.625 0)"/>
     <use xlink:href="#DejaVuSans-11" transform="translate(127.25 0)"/>
     <use xlink:href="#DejaVuSans-14" transform="translate(159.03125 0)"/>
    </g>
   </g>
   <g id="text_17">
    <!-- 16.5 -->
    <g transform="translate(378.44752 227.251376) scale(0.085 -0.085)">
     <use xlink:href="#DejaVuSans-14"/>
     <use xlink:href="#DejaVuSans-19" transform="translate(63.625 0)"/>
     <use xlink:href="#DejaVuSans-11" transform="translate(127.25 0)"/>
     <use xlink:href="#DejaVuSans-18" transform="translate(159.03125 0)"/>
    </g>
   </g>
   <g id="text_18">
    <!-- 31.1 -->
    <g transform="translate(91.994406 97.88258) scale(0.085 -0.085)">
     <use xlink:href="#DejaVuSans-16"/>
     <use xlink:href="#DejaVuSans-14" transform="translate(63.625 0)"/>
     <use xlink:href="#DejaVuSans-11" transform="translate(127.25 0)"/>
     <use xlink:href="#DejaVuSans-14" transform="translate(159.03125 0)"/>
    </g>
   </g>
   <g id="text_19">
    <!-- 19.7 -->
    <g transform="translate(196.539338 198.896571) scale(0.085 -0.085)">
     <defs>
      <path id="DejaVuSans-1c" d="M 703 97 
L 703 672 
Q 941 559 1184 500 
Q 1428 441 1663 441 
Q 2288 441 2617 861 
Q 2947 1281 2994 2138 
Q 2813 1869 2534 1725 
Q 2256 1581 1919 1581 
Q 1219 1581 811 2004 
Q 403 2428 403 3163 
Q 403 3881 828 4315 
Q 1253 4750 1959 4750 
Q 2769 4750 3195 4129 
Q 3622 3509 3622 2328 
Q 3622 1225 3098 567 
Q 2575 -91 1691 -91 
Q 1453 -91 1209 -44 
Q 966 3 703 97 
z
M 1959 2075 
Q 2384 2075 2632 2365 
Q 2881 2656 2881 3163 
Q 2881 3666 2632 3958 
Q 2384 4250 1959 4250 
Q 1534 4250 1286 3958 
Q 1038 3666 1038 3163 
Q 1038 2656 1286 2365 
Q 1534 2075 1959 2075 
z
" transform="scale(0.015625)"/>
     </defs>
     <use xlink:href="#DejaVuSans-14"/>
     <use xlink:href="#DejaVuSans-1c" transform="translate(63.625 0)"/>
     <use xlink:href="#DejaVuSans-11" transform="translate(127.25 0)"/>
     <use xlink:href="#DejaVuSans-1a" transform="translate(159.03125 0)"/>
    </g>
   </g>
   <g id="text_20">
    <!-- 33.6 -->
    <g transform="translate(301.08427 75.73039) scale(0.085 -0.085)">
     <use xlink:href="#DejaVuSans-16"/>
     <use xlink:href="#DejaVuSans-16" transform="translate(63.625 0)"/>
     <use xlink:href="#DejaVuSans-11" transform="translate(127.25 0)"/>
     <use xlink:href="#DejaVuSans-19" transform="translate(159.03125 0)"/>
    </g>
   </g>
   <g id="text_21">
    <!-- 19.9 -->
    <g transform="translate(405.629202 197.124396) scale(0.085 -0.085)">
     <use xlink:href="#DejaVuSans-14"/>
     <use xlink:href="#DejaVuSans-1c" transform="translate(63.625 0)"/>
     <use xlink:href="#DejaVuSans-11" transform="translate(127.25 0)"/>
     <use xlink:href="#DejaVuSans-1c" transform="translate(159.03125 0)"/>
    </g>
   </g>
   <g id="text_22">
    <!-- 27.8 -->
    <g transform="translate(119.176089 127.123473) scale(0.085 -0.085)">
     <use xlink:href="#DejaVuSans-15"/>
     <use xlink:href="#DejaVuSans-1a" transform="translate(63.625 0)"/>
     <use xlink:href="#DejaVuSans-11" transform="translate(127.25 0)"/>
     <use xlink:href="#DejaVuSans-1b" transform="translate(159.03125 0)"/>
    </g>
   </g>
   <g id="text_23">
    <!-- 16.2 -->
    <g transform="translate(223.721021 229.909639) scale(0.085 -0.085)">
     <use xlink:href="#DejaVuSans-14"/>
     <use xlink:href="#DejaVuSans-19" transform="translate(63.625 0)"/>
     <use xlink:href="#DejaVuSans-11" transform="translate(127.25 0)"/>
     <use xlink:href="#DejaVuSans-15" transform="translate(159.03125 0)"/>
    </g>
   </g>
   <g id="text_24">
    <!-- 23.8 -->
    <g transform="translate(328.265953 162.566978) scale(0.085 -0.085)">
     <use xlink:href="#DejaVuSans-15"/>
     <use xlink:href="#DejaVuSans-16" transform="translate(63.625 0)"/>
     <use xlink:href="#DejaVuSans-11" transform="translate(127.25 0)"/>
     <use xlink:href="#DejaVuSans-1b" transform="translate(159.03125 0)"/>
    </g>
   </g>
   <g id="text_25">
    <!-- 13.2 -->
    <g transform="translate(432.810885 256.492268) scale(0.085 -0.085)">
     <use xlink:href="#DejaVuSans-14"/>
     <use xlink:href="#DejaVuSans-16" transform="translate(63.625 0)"/>
     <use xlink:href="#DejaVuSans-11" transform="translate(127.25 0)"/>
     <use xlink:href="#DejaVuSans-15" transform="translate(159.03125 0)"/>
    </g>
   </g>
   <g id="text_26">
    <!-- (a) 9B, same size, two quants — decode by engine -->
    <g transform="translate(40.925781 57.844117) scale(0.115 -0.115)">
     <defs>
      <path id="DejaVuSans-44" d="M 2194 1759 
Q 1497 1759 1228 1600 
Q 959 1441 959 1056 
Q 959 750 1161 570 
Q 1363 391 1709 391 
Q 2188 391 2477 730 
Q 2766 1069 2766 1631 
L 2766 1759 
L 2194 1759 
z
M 3341 1997 
L 3341 0 
L 2766 0 
L 2766 531 
Q 2569 213 2275 61 
Q 1981 -91 1556 -91 
Q 1019 -91 701 211 
Q 384 513 384 1019 
Q 384 1609 779 1909 
Q 1175 2209 1959 2209 
L 2766 2209 
L 2766 2266 
Q 2766 2663 2505 2880 
Q 2244 3097 1772 3097 
Q 1472 3097 1187 3025 
Q 903 2953 641 2809 
L 641 3341 
Q 956 3463 1253 3523 
Q 1550 3584 1831 3584 
Q 2591 3584 2966 3190 
Q 3341 2797 3341 1997 
z
" transform="scale(0.015625)"/>
      <path id="DejaVuSans-25" d="M 1259 2228 
L 1259 519 
L 2272 519 
Q 2781 519 3026 730 
Q 3272 941 3272 1375 
Q 3272 1813 3026 2020 
Q 2781 2228 2272 2228 
L 1259 2228 
z
M 1259 4147 
L 1259 2741 
L 2194 2741 
Q 2656 2741 2882 2914 
Q 3109 3088 3109 3444 
Q 3109 3797 2882 3972 
Q 2656 4147 2194 4147 
L 1259 4147 
z
M 628 4666 
L 2241 4666 
Q 2963 4666 3353 4366 
Q 3744 4066 3744 3513 
Q 3744 3084 3544 2831 
Q 3344 2578 2956 2516 
Q 3422 2416 3680 2098 
Q 3938 1781 3938 1306 
Q 3938 681 3513 340 
Q 3088 0 2303 0 
L 628 0 
L 628 4666 
z
" transform="scale(0.015625)"/>
      <path id="DejaVuSans-f" d="M 750 794 
L 1409 794 
L 1409 256 
L 897 -744 
L 494 -744 
L 750 256 
L 750 794 
z
" transform="scale(0.015625)"/>
      <path id="DejaVuSans-5d" d="M 353 3500 
L 3084 3500 
L 3084 2975 
L 922 459 
L 3084 459 
L 3084 0 
L 275 0 
L 275 525 
L 2438 3041 
L 353 3041 
L 353 3500 
z
" transform="scale(0.015625)"/>
      <path id="DejaVuSans-5a" d="M 269 3500 
L 844 3500 
L 1563 769 
L 2278 3500 
L 2956 3500 
L 3675 769 
L 4391 3500 
L 4966 3500 
L 4050 0 
L 3372 0 
L 2619 2869 
L 1863 0 
L 1184 0 
L 269 3500 
z
" transform="scale(0.015625)"/>
      <path id="DejaVuSans-58" d="M 544 1381 
L 544 3500 
L 1119 3500 
L 1119 1403 
Q 1119 906 1312 657 
Q 1506 409 1894 409 
Q 2359 409 2629 706 
Q 2900 1003 2900 1516 
L 2900 3500 
L 3475 3500 
L 3475 0 
L 2900 0 
L 2900 538 
Q 2691 219 2414 64 
Q 2138 -91 1772 -91 
Q 1169 -91 856 284 
Q 544 659 544 1381 
z
M 1991 3584 
L 1991 3584 
z
" transform="scale(0.015625)"/>
      <path id="DejaVuSans-51" d="M 3513 2113 
L 3513 0 
L 2938 0 
L 2938 2094 
Q 2938 2591 2744 2837 
Q 2550 3084 2163 3084 
Q 1697 3084 1428 2787 
Q 1159 2491 1159 1978 
L 1159 0 
L 581 0 
L 581 3500 
L 1159 3500 
L 1159 2956 
Q 1366 3272 1645 3428 
Q 1925 3584 2291 3584 
Q 2894 3584 3203 3211 
Q 3513 2838 3513 2113 
z
" transform="scale(0.015625)"/>
      <path id="DejaVuSans-af6" d="M 313 1978 
L 6088 1978 
L 6088 1528 
L 313 1528 
L 313 1978 
z
" transform="scale(0.015625)"/>
      <path id="DejaVuSans-45" d="M 3116 1747 
Q 3116 2381 2855 2742 
Q 2594 3103 2138 3103 
Q 1681 3103 1420 2742 
Q 1159 2381 1159 1747 
Q 1159 1113 1420 752 
Q 1681 391 2138 391 
Q 2594 391 2855 752 
Q 3116 1113 3116 1747 
z
M 1159 2969 
Q 1341 3281 1617 3432 
Q 1894 3584 2278 3584 
Q 2916 3584 3314 3078 
Q 3713 2572 3713 1747 
Q 3713 922 3314 415 
Q 2916 -91 2278 -91 
Q 1894 -91 1617 61 
Q 1341 213 1159 525 
L 1159 0 
L 581 0 
L 581 4863 
L 1159 4863 
L 1159 2969 
z
" transform="scale(0.015625)"/>
      <path id="DejaVuSans-5c" d="M 2059 -325 
Q 1816 -950 1584 -1140 
Q 1353 -1331 966 -1331 
L 506 -1331 
L 506 -850 
L 844 -850 
Q 1081 -850 1212 -737 
Q 1344 -625 1503 -206 
L 1606 56 
L 191 3500 
L 800 3500 
L 1894 763 
L 2988 3500 
L 3597 3500 
L 2059 -325 
z
" transform="scale(0.015625)"/>
      <path id="DejaVuSans-4a" d="M 2906 1791 
Q 2906 2416 2648 2759 
Q 2391 3103 1925 3103 
Q 1463 3103 1205 2759 
Q 947 2416 947 1791 
Q 947 1169 1205 825 
Q 1463 481 1925 481 
Q 2391 481 2648 825 
Q 2906 1169 2906 1791 
z
M 3481 434 
Q 3481 -459 3084 -895 
Q 2688 -1331 1869 -1331 
Q 1566 -1331 1297 -1286 
Q 1028 -1241 775 -1147 
L 775 -588 
Q 1028 -725 1275 -790 
Q 1522 -856 1778 -856 
Q 2344 -856 2625 -561 
Q 2906 -266 2906 331 
L 2906 616 
Q 2728 306 2450 153 
Q 2172 0 1784 0 
Q 1141 0 747 490 
Q 353 981 353 1791 
Q 353 2603 747 3093 
Q 1141 3584 1784 3584 
Q 2172 3584 2450 3431 
Q 2728 3278 2906 2969 
L 2906 3500 
L 3481 3500 
L 3481 434 
z
" transform="scale(0.015625)"/>
     </defs>
     <use xlink:href="#DejaVuSans-b"/>
     <use xlink:href="#DejaVuSans-44" transform="translate(39.015625 0)"/>
     <use xlink:href="#DejaVuSans-c" transform="translate(100.296875 0)"/>
     <use xlink:href="#DejaVuSans-3" transform="translate(139.3125 0)"/>
     <use xlink:href="#DejaVuSans-1c" transform="translate(171.09375 0)"/>
     <use xlink:href="#DejaVuSans-25" transform="translate(234.71875 0)"/>
     <use xlink:href="#DejaVuSans-f" transform="translate(303.328125 0)"/>
     <use xlink:href="#DejaVuSans-3" transform="translate(335.109375 0)"/>
     <use xlink:href="#DejaVuSans-56" transform="translate(366.890625 0)"/>
     <use xlink:href="#DejaVuSans-44" transform="translate(418.984375 0)"/>
     <use xlink:href="#DejaVuSans-50" transform="translate(480.265625 0)"/>
     <use xlink:href="#DejaVuSans-48" transform="translate(577.671875 0)"/>
     <use xlink:href="#DejaVuSans-3" transform="translate(639.203125 0)"/>
     <use xlink:href="#DejaVuSans-56" transform="translate(670.984375 0)"/>
     <use xlink:href="#DejaVuSans-4c" transform="translate(723.078125 0)"/>
     <use xlink:href="#DejaVuSans-5d" transform="translate(750.859375 0)"/>
     <use xlink:href="#DejaVuSans-48" transform="translate(803.34375 0)"/>
     <use xlink:href="#DejaVuSans-f" transform="translate(864.875 0)"/>
     <use xlink:href="#DejaVuSans-3" transform="translate(896.65625 0)"/>
     <use xlink:href="#DejaVuSans-57" transform="translate(928.4375 0)"/>
     <use xlink:href="#DejaVuSans-5a" transform="translate(967.640625 0)"/>
     <use xlink:href="#DejaVuSans-52" transform="translate(1049.421875 0)"/>
     <use xlink:href="#DejaVuSans-3" transform="translate(1110.609375 0)"/>
     <use xlink:href="#DejaVuSans-54" transform="translate(1142.390625 0)"/>
     <use xlink:href="#DejaVuSans-58" transform="translate(1205.875 0)"/>
     <use xlink:href="#DejaVuSans-44" transform="translate(1269.25 0)"/>
     <use xlink:href="#DejaVuSans-51" transform="translate(1330.53125 0)"/>
     <use xlink:href="#DejaVuSans-57" transform="translate(1393.90625 0)"/>
     <use xlink:href="#DejaVuSans-56" transform="translate(1433.109375 0)"/>
     <use xlink:href="#DejaVuSans-3" transform="translate(1485.203125 0)"/>
     <use xlink:href="#DejaVuSans-af6" transform="translate(1516.984375 0)"/>
     <use xlink:href="#DejaVuSans-3" transform="translate(1616.984375 0)"/>
     <use xlink:href="#DejaVuSans-47" transform="translate(1648.765625 0)"/>
     <use xlink:href="#DejaVuSans-48" transform="translate(1712.25 0)"/>
     <use xlink:href="#DejaVuSans-46" transform="translate(1773.78125 0)"/>
     <use xlink:href="#DejaVuSans-52" transform="translate(1828.765625 0)"/>
     <use xlink:href="#DejaVuSans-47" transform="translate(1889.953125 0)"/>
     <use xlink:href="#DejaVuSans-48" transform="translate(1953.4375 0)"/>
     <use xlink:href="#DejaVuSans-3" transform="translate(2014.96875 0)"/>
     <use xlink:href="#DejaVuSans-45" transform="translate(2046.75 0)"/>
     <use xlink:href="#DejaVuSans-5c" transform="translate(2110.234375 0)"/>
     <use xlink:href="#DejaVuSans-3" transform="translate(2169.421875 0)"/>
     <use xlink:href="#DejaVuSans-48" transform="translate(2201.203125 0)"/>
     <use xlink:href="#DejaVuSans-51" transform="translate(2262.734375 0)"/>
     <use xlink:href="#DejaVuSans-4a" transform="translate(2326.109375 0)"/>
     <use xlink:href="#DejaVuSans-4c" transform="translate(2389.59375 0)"/>
     <use xlink:href="#DejaVuSans-51" transform="translate(2417.375 0)"/>
     <use xlink:href="#DejaVuSans-48" transform="translate(2480.75 0)"/>
    </g>
   </g>
   <g id="legend_1">
    <g id="patch_19">
     <path d="M 394.245718 114.196344 
L 468.973609 114.196344 
Q 470.873609 114.196344 470.873609 112.296344 
L 470.873609 70.494117 
Q 470.873609 68.594117 468.973609 68.594117 
L 394.245718 68.594117 
Q 392.345718 68.594117 392.345718 70.494117 
L 392.345718 112.296344 
Q 392.345718 114.196344 394.245718 114.196344 
z
" style="fill: #ffffff; opacity: 0.8; stroke: #cccccc; stroke-linejoin: miter"/>
    </g>
    <g id="patch_20">
     <path d="M 396.145718 79.612633 
L 415.145718 79.612633 
L 415.145718 72.962633 
L 396.145718 72.962633 
z
" style="fill: #c0392b"/>
    </g>
    <g id="text_27">
     <!-- cpu -->
     <g transform="translate(422.745718 79.612633) scale(0.095 -0.095)">
      <use xlink:href="#DejaVuSans-46"/>
      <use xlink:href="#DejaVuSans-53" transform="translate(54.984375 0)"/>
      <use xlink:href="#DejaVuSans-58" transform="translate(118.46875 0)"/>
     </g>
    </g>
    <g id="patch_21">
     <path d="M 396.145718 93.863375 
L 415.145718 93.863375 
L 415.145718 87.213375 
L 396.145718 87.213375 
z
" style="fill: #1f77b4"/>
    </g>
    <g id="text_28">
     <!-- passback -->
     <g transform="translate(422.745718 93.863375) scale(0.095 -0.095)">
      <use xlink:href="#DejaVuSans-53"/>
      <use xlink:href="#DejaVuSans-44" transform="translate(63.484375 0)"/>
      <use xlink:href="#DejaVuSans-56" transform="translate(124.765625 0)"/>
      <use xlink:href="#DejaVuSans-56" transform="translate(176.859375 0)"/>
      <use xlink:href="#DejaVuSans-45" transform="translate(228.953125 0)"/>
      <use xlink:href="#DejaVuSans-44" transform="translate(292.4375 0)"/>
      <use xlink:href="#DejaVuSans-46" transform="translate(353.71875 0)"/>
      <use xlink:href="#DejaVuSans-4e" transform="translate(408.703125 0)"/>
     </g>
    </g>
    <g id="patch_22">
     <path d="M 396.145718 108.114117 
L 415.145718 108.114117 
L 415.145718 101.464117 
L 396.145718 101.464117 
z
" style="fill: #7f8c8d"/>
    </g>
    <g id="text_29">
     <!-- pcie -->
     <g transform="translate(422.745718 108.114117) scale(0.095 -0.095)">
      <use xlink:href="#DejaVuSans-53"/>
      <use xlink:href="#DejaVuSans-46" transform="translate(63.484375 0)"/>
      <use xlink:href="#DejaVuSans-4c" transform="translate(118.46875 0)"/>
      <use xlink:href="#DejaVuSans-48" transform="translate(146.25 0)"/>
     </g>
    </g>
   </g>
  </g>
  <g id="axes_2">
   <g id="patch_23">
    <path d="M 522.34561 376.455836 
L 957.043437 376.455836 
L 957.043437 63.844117 
L 522.34561 63.844117 
z
" style="fill: #ffffff"/>
   </g>
   <g id="patch_24">
    <path d="M 542.104602 391.304166 
L 592.969334 391.304166 
L 592.969334 308.281717 
L 542.104602 308.281717 
z
" clip-path="url(#pcc2d77dec3)" style="fill: #1f77b4"/>
   </g>
   <g id="patch_25">
    <path d="M 639.921395 391.304166 
L 690.786127 391.304166 
L 690.786127 285.271061 
L 639.921395 285.271061 
z
" clip-path="url(#pcc2d77dec3)" style="fill: #1f77b4"/>
   </g>
   <g id="patch_26">
    <path d="M 737.738188 391.304166 
L 788.60292 391.304166 
L 788.60292 284.29233 
L 737.738188 284.29233 
z
" clip-path="url(#pcc2d77dec3)" style="fill: #1f77b4"/>
   </g>
   <g id="patch_27">
    <path d="M 835.554981 391.304166 
L 886.419713 391.304166 
L 886.419713 278.643992 
L 835.554981 278.643992 
z
" clip-path="url(#pcc2d77dec3)" style="fill: #1f77b4"/>
   </g>
   <g id="patch_28">
    <path d="M 592.969334 391.304166 
L 643.834067 391.304166 
L 643.834067 326.404182 
L 592.969334 326.404182 
z
" clip-path="url(#pcc2d77dec3)" style="fill: #2ca02c"/>
   </g>
   <g id="patch_29">
    <path d="M 690.786127 391.304166 
L 741.65086 391.304166 
L 741.65086 273.182796 
L 690.786127 273.182796 
z
" clip-path="url(#pcc2d77dec3)" style="fill: #2ca02c"/>
   </g>
   <g id="patch_30">
    <path d="M 788.60292 391.304166 
L 839.467652 391.304166 
L 839.467652 166.178732 
L 788.60292 166.178732 
z
" clip-path="url(#pcc2d77dec3)" style="fill: #2ca02c"/>
   </g>
   <g id="patch_31">
    <path d="M 886.419713 391.304166 
L 937.284445 391.304166 
L 937.284445 113.79565 
L 886.419713 113.79565 
z
" clip-path="url(#pcc2d77dec3)" style="fill: #2ca02c"/>
   </g>
   <g id="matplotlib.axis_3">
    <g id="xtick_5">
     <g id="line2d_21">
      <g>
       <use xlink:href="#m1665f9979a" x="592.969334" y="376.455836" style="stroke: #000000; stroke-width: 0.8"/>
      </g>
     </g>
     <g id="text_30">
      <!-- mq3 -->
      <g transform="translate(582.304842 391.624537) scale(0.095 -0.095)">
       <use xlink:href="#DejaVuSans-50"/>
       <use xlink:href="#DejaVuSans-54" transform="translate(97.40625 0)"/>
       <use xlink:href="#DejaVuSans-16" transform="translate(160.890625 0)"/>
      </g>
      <!-- 8 of 32 spilled -->
      <g transform="translate(559.408358 403.027135) scale(0.095 -0.095)">
       <use xlink:href="#DejaVuSans-1b"/>
       <use xlink:href="#DejaVuSans-3" transform="translate(63.625 0)"/>
       <use xlink:href="#DejaVuSans-52" transform="translate(95.40625 0)"/>
       <use xlink:href="#DejaVuSans-49" transform="translate(156.59375 0)"/>
       <use xlink:href="#DejaVuSans-3" transform="translate(191.796875 0)"/>
       <use xlink:href="#DejaVuSans-16" transform="translate(223.578125 0)"/>
       <use xlink:href="#DejaVuSans-15" transform="translate(287.203125 0)"/>
       <use xlink:href="#DejaVuSans-3" transform="translate(350.828125 0)"/>
       <use xlink:href="#DejaVuSans-56" transform="translate(382.609375 0)"/>
       <use xlink:href="#DejaVuSans-53" transform="translate(434.703125 0)"/>
       <use xlink:href="#DejaVuSans-4c" transform="translate(498.1875 0)"/>
       <use xlink:href="#DejaVuSans-4f" transform="translate(525.96875 0)"/>
       <use xlink:href="#DejaVuSans-4f" transform="translate(553.75 0)"/>
       <use xlink:href="#DejaVuSans-48" transform="translate(581.53125 0)"/>
       <use xlink:href="#DejaVuSans-47" transform="translate(643.0625 0)"/>
      </g>
     </g>
    </g>
    <g id="xtick_6">
     <g id="line2d_22">
      <g>
       <use xlink:href="#m1665f9979a" x="690.786127" y="376.455836" style="stroke: #000000; stroke-width: 0.8"/>
      </g>
     </g>
     <g id="text_31">
      <!-- mq3 -->
      <g transform="translate(680.121635 391.624537) scale(0.095 -0.095)">
       <use xlink:href="#DejaVuSans-50"/>
       <use xlink:href="#DejaVuSans-54" transform="translate(97.40625 0)"/>
       <use xlink:href="#DejaVuSans-16" transform="translate(160.890625 0)"/>
      </g>
      <!-- 16 of 32 spilled -->
      <g transform="translate(654.202963 403.027135) scale(0.095 -0.095)">
       <use xlink:href="#DejaVuSans-14"/>
       <use xlink:href="#DejaVuSans-19" transform="translate(63.625 0)"/>
       <use xlink:href="#DejaVuSans-3" transform="translate(127.25 0)"/>
       <use xlink:href="#DejaVuSans-52" transform="translate(159.03125 0)"/>
       <use xlink:href="#DejaVuSans-49" transform="translate(220.21875 0)"/>
       <use xlink:href="#DejaVuSans-3" transform="translate(255.421875 0)"/>
       <use xlink:href="#DejaVuSans-16" transform="translate(287.203125 0)"/>
       <use xlink:href="#DejaVuSans-15" transform="translate(350.828125 0)"/>
       <use xlink:href="#DejaVuSans-3" transform="translate(414.453125 0)"/>
       <use xlink:href="#DejaVuSans-56" transform="translate(446.234375 0)"/>
       <use xlink:href="#DejaVuSans-53" transform="translate(498.328125 0)"/>
       <use xlink:href="#DejaVuSans-4c" transform="translate(561.8125 0)"/>
       <use xlink:href="#DejaVuSans-4f" transform="translate(589.59375 0)"/>
       <use xlink:href="#DejaVuSans-4f" transform="translate(617.375 0)"/>
       <use xlink:href="#DejaVuSans-48" transform="translate(645.15625 0)"/>
       <use xlink:href="#DejaVuSans-47" transform="translate(706.6875 0)"/>
      </g>
     </g>
    </g>
    <g id="xtick_7">
     <g id="line2d_23">
      <g>
       <use xlink:href="#m1665f9979a" x="788.60292" y="376.455836" style="stroke: #000000; stroke-width: 0.8"/>
      </g>
     </g>
     <g id="text_32">
      <!-- mq4 -->
      <g transform="translate(777.938428 391.624537) scale(0.095 -0.095)">
       <use xlink:href="#DejaVuSans-50"/>
       <use xlink:href="#DejaVuSans-54" transform="translate(97.40625 0)"/>
       <use xlink:href="#DejaVuSans-17" transform="translate(160.890625 0)"/>
      </g>
      <!-- 8 of 32 spilled -->
      <g transform="translate(755.041944 403.027135) scale(0.095 -0.095)">
       <use xlink:href="#DejaVuSans-1b"/>
       <use xlink:href="#DejaVuSans-3" transform="translate(63.625 0)"/>
       <use xlink:href="#DejaVuSans-52" transform="translate(95.40625 0)"/>
       <use xlink:href="#DejaVuSans-49" transform="translate(156.59375 0)"/>
       <use xlink:href="#DejaVuSans-3" transform="translate(191.796875 0)"/>
       <use xlink:href="#DejaVuSans-16" transform="translate(223.578125 0)"/>
       <use xlink:href="#DejaVuSans-15" transform="translate(287.203125 0)"/>
       <use xlink:href="#DejaVuSans-3" transform="translate(350.828125 0)"/>
       <use xlink:href="#DejaVuSans-56" transform="translate(382.609375 0)"/>
       <use xlink:href="#DejaVuSans-53" transform="translate(434.703125 0)"/>
       <use xlink:href="#DejaVuSans-4c" transform="translate(498.1875 0)"/>
       <use xlink:href="#DejaVuSans-4f" transform="translate(525.96875 0)"/>
       <use xlink:href="#DejaVuSans-4f" transform="translate(553.75 0)"/>
       <use xlink:href="#DejaVuSans-48" transform="translate(581.53125 0)"/>
       <use xlink:href="#DejaVuSans-47" transform="translate(643.0625 0)"/>
      </g>
     </g>
    </g>
    <g id="xtick_8">
     <g id="line2d_24">
      <g>
       <use xlink:href="#m1665f9979a" x="886.419713" y="376.455836" style="stroke: #000000; stroke-width: 0.8"/>
      </g>
     </g>
     <g id="text_33">
      <!-- mq4 -->
      <g transform="translate(875.755221 391.624537) scale(0.095 -0.095)">
       <use xlink:href="#DejaVuSans-50"/>
       <use xlink:href="#DejaVuSans-54" transform="translate(97.40625 0)"/>
       <use xlink:href="#DejaVuSans-17" transform="translate(160.890625 0)"/>
      </g>
      <!-- 16 of 32 spilled -->
      <g transform="translate(849.836549 403.027135) scale(0.095 -0.095)">
       <use xlink:href="#DejaVuSans-14"/>
       <use xlink:href="#DejaVuSans-19" transform="translate(63.625 0)"/>
       <use xlink:href="#DejaVuSans-3" transform="translate(127.25 0)"/>
       <use xlink:href="#DejaVuSans-52" transform="translate(159.03125 0)"/>
       <use xlink:href="#DejaVuSans-49" transform="translate(220.21875 0)"/>
       <use xlink:href="#DejaVuSans-3" transform="translate(255.421875 0)"/>
       <use xlink:href="#DejaVuSans-16" transform="translate(287.203125 0)"/>
       <use xlink:href="#DejaVuSans-15" transform="translate(350.828125 0)"/>
       <use xlink:href="#DejaVuSans-3" transform="translate(414.453125 0)"/>
       <use xlink:href="#DejaVuSans-56" transform="translate(446.234375 0)"/>
       <use xlink:href="#DejaVuSans-53" transform="translate(498.328125 0)"/>
       <use xlink:href="#DejaVuSans-4c" transform="translate(561.8125 0)"/>
       <use xlink:href="#DejaVuSans-4f" transform="translate(589.59375 0)"/>
       <use xlink:href="#DejaVuSans-4f" transform="translate(617.375 0)"/>
       <use xlink:href="#DejaVuSans-48" transform="translate(645.15625 0)"/>
       <use xlink:href="#DejaVuSans-47" transform="translate(706.6875 0)"/>
      </g>
     </g>
    </g>
   </g>
   <g id="matplotlib.axis_4">
    <g id="ytick_9">
     <g id="line2d_25">
      <path d="M 522.34561 336.630846 
L 957.043437 336.630846 
" clip-path="url(#pcc2d77dec3)" style="fill: none; stroke: #b0b0b0; stroke-opacity: 0.3; stroke-width: 0.8; stroke-linecap: square"/>
     </g>
     <g id="line2d_26">
      <g>
       <use xlink:href="#m9f06ebee22" x="522.34561" y="336.630846" style="stroke: #000000; stroke-width: 0.8"/>
      </g>
     </g>
     <g id="text_34">
      <!-- 10 -->
      <g transform="translate(502.62061 340.429674) scale(0.1 -0.1)">
       <use xlink:href="#DejaVuSans-14"/>
       <use xlink:href="#DejaVuSans-13" transform="translate(63.625 0)"/>
      </g>
     </g>
    </g>
    <g id="ytick_10">
     <g id="line2d_27">
      <path d="M 522.34561 281.957527 
L 957.043437 281.957527 
" clip-path="url(#pcc2d77dec3)" style="fill: none; stroke: #b0b0b0; stroke-opacity: 0.3; stroke-width: 0.8; stroke-linecap: square"/>
     </g>
     <g id="line2d_28">
      <g>
       <use xlink:href="#m9f06ebee22" x="522.34561" y="281.957527" style="stroke: #000000; stroke-width: 0.8"/>
      </g>
     </g>
     <g id="text_35">
      <!-- 20 -->
      <g transform="translate(502.62061 285.756355) scale(0.1 -0.1)">
       <use xlink:href="#DejaVuSans-15"/>
       <use xlink:href="#DejaVuSans-13" transform="translate(63.625 0)"/>
      </g>
     </g>
    </g>
    <g id="ytick_11">
     <g id="line2d_29">
      <path d="M 522.34561 227.284207 
L 957.043437 227.284207 
" clip-path="url(#pcc2d77dec3)" style="fill: none; stroke: #b0b0b0; stroke-opacity: 0.3; stroke-width: 0.8; stroke-linecap: square"/>
     </g>
     <g id="line2d_30">
      <g>
       <use xlink:href="#m9f06ebee22" x="522.34561" y="227.284207" style="stroke: #000000; stroke-width: 0.8"/>
      </g>
     </g>
     <g id="text_36">
      <!-- 30 -->
      <g transform="translate(502.62061 231.083035) scale(0.1 -0.1)">
       <use xlink:href="#DejaVuSans-16"/>
       <use xlink:href="#DejaVuSans-13" transform="translate(63.625 0)"/>
      </g>
     </g>
    </g>
    <g id="ytick_12">
     <g id="line2d_31">
      <path d="M 522.34561 172.610888 
L 957.043437 172.610888 
" clip-path="url(#pcc2d77dec3)" style="fill: none; stroke: #b0b0b0; stroke-opacity: 0.3; stroke-width: 0.8; stroke-linecap: square"/>
     </g>
     <g id="line2d_32">
      <g>
       <use xlink:href="#m9f06ebee22" x="522.34561" y="172.610888" style="stroke: #000000; stroke-width: 0.8"/>
      </g>
     </g>
     <g id="text_37">
      <!-- 40 -->
      <g transform="translate(502.62061 176.409716) scale(0.1 -0.1)">
       <use xlink:href="#DejaVuSans-17"/>
       <use xlink:href="#DejaVuSans-13" transform="translate(63.625 0)"/>
      </g>
     </g>
    </g>
    <g id="ytick_13">
     <g id="line2d_33">
      <path d="M 522.34561 117.937568 
L 957.043437 117.937568 
" clip-path="url(#pcc2d77dec3)" style="fill: none; stroke: #b0b0b0; stroke-opacity: 0.3; stroke-width: 0.8; stroke-linecap: square"/>
     </g>
     <g id="line2d_34">
      <g>
       <use xlink:href="#m9f06ebee22" x="522.34561" y="117.937568" style="stroke: #000000; stroke-width: 0.8"/>
      </g>
     </g>
     <g id="text_38">
      <!-- 50 -->
      <g transform="translate(502.62061 121.736396) scale(0.1 -0.1)">
       <use xlink:href="#DejaVuSans-18"/>
       <use xlink:href="#DejaVuSans-13" transform="translate(63.625 0)"/>
      </g>
     </g>
    </g>
    <g id="text_39">
     <!-- pass-back decode gain -->
     <g transform="translate(496.218266 277.568727) rotate(-90) scale(0.1 -0.1)">
      <defs>
       <path id="DejaVuSans-10" d="M 313 2009 
L 1997 2009 
L 1997 1497 
L 313 1497 
L 313 2009 
z
" transform="scale(0.015625)"/>
      </defs>
      <use xlink:href="#DejaVuSans-53"/>
      <use xlink:href="#DejaVuSans-44" transform="translate(63.484375 0)"/>
      <use xlink:href="#DejaVuSans-56" transform="translate(124.765625 0)"/>
      <use xlink:href="#DejaVuSans-56" transform="translate(176.859375 0)"/>
      <use xlink:href="#DejaVuSans-10" transform="translate(228.953125 0)"/>
      <use xlink:href="#DejaVuSans-45" transform="translate(265.03125 0)"/>
      <use xlink:href="#DejaVuSans-44" transform="translate(328.515625 0)"/>
      <use xlink:href="#DejaVuSans-46" transform="translate(389.796875 0)"/>
      <use xlink:href="#DejaVuSans-4e" transform="translate(444.78125 0)"/>
      <use xlink:href="#DejaVuSans-3" transform="translate(502.6875 0)"/>
      <use xlink:href="#DejaVuSans-47" transform="translate(534.46875 0)"/>
      <use xlink:href="#DejaVuSans-48" transform="translate(597.953125 0)"/>
      <use xlink:href="#DejaVuSans-46" transform="translate(659.484375 0)"/>
      <use xlink:href="#DejaVuSans-52" transform="translate(714.46875 0)"/>
      <use xlink:href="#DejaVuSans-47" transform="translate(775.65625 0)"/>
      <use xlink:href="#DejaVuSans-48" transform="translate(839.140625 0)"/>
      <use xlink:href="#DejaVuSans-3" transform="translate(900.671875 0)"/>
      <use xlink:href="#DejaVuSans-4a" transform="translate(932.453125 0)"/>
      <use xlink:href="#DejaVuSans-44" transform="translate(995.9375 0)"/>
      <use xlink:href="#DejaVuSans-4c" transform="translate(1057.21875 0)"/>
      <use xlink:href="#DejaVuSans-51" transform="translate(1085 0)"/>
     </g>
    </g>
   </g>
   <g id="line2d_35">
    <path d="M 522.34561 391.304166 
L 957.043437 391.304166 
" clip-path="url(#pcc2d77dec3)" style="fill: none; stroke-dasharray: 3.7,1.6; stroke-dashoffset: 0; stroke: #888888"/>
   </g>
   <g id="patch_32">
    <path d="M 522.34561 376.455836 
L 522.34561 63.844117 
" style="fill: none; stroke: #000000; stroke-width: 0.8; stroke-linejoin: miter; stroke-linecap: square"/>
   </g>
   <g id="patch_33">
    <path d="M 957.043437 376.455836 
L 957.043437 63.844117 
" style="fill: none; stroke: #000000; stroke-width: 0.8; stroke-linejoin: miter; stroke-linecap: square"/>
   </g>
   <g id="patch_34">
    <path d="M 522.34561 376.455836 
L 957.043437 376.455836 
" style="fill: none; stroke: #000000; stroke-width: 0.8; stroke-linejoin: miter; stroke-linecap: square"/>
   </g>
   <g id="patch_35">
    <path d="M 522.34561 63.844117 
L 957.043437 63.844117 
" style="fill: none; stroke: #000000; stroke-width: 0.8; stroke-linejoin: miter; stroke-linecap: square"/>
   </g>
   <g id="text_40">
    <!-- +15% -->
    <g style="fill: #1f77b4" transform="translate(552.994937 305.281717) scale(0.09 -0.09)">
     <defs>
      <path id="DejaVuSans-Bold-e" d="M 3053 4013 
L 3053 2375 
L 4684 2375 
L 4684 1638 
L 3053 1638 
L 3053 0 
L 2309 0 
L 2309 1638 
L 678 1638 
L 678 2375 
L 2309 2375 
L 2309 4013 
L 3053 4013 
z
" transform="scale(0.015625)"/>
      <path id="DejaVuSans-Bold-14" d="M 750 831 
L 1813 831 
L 1813 3847 
L 722 3622 
L 722 4441 
L 1806 4666 
L 2950 4666 
L 2950 831 
L 4013 831 
L 4013 0 
L 750 0 
L 750 831 
z
" transform="scale(0.015625)"/>
      <path id="DejaVuSans-Bold-18" d="M 678 4666 
L 3669 4666 
L 3669 3781 
L 1638 3781 
L 1638 3059 
Q 1775 3097 1914 3117 
Q 2053 3138 2203 3138 
Q 3056 3138 3531 2711 
Q 4006 2284 4006 1522 
Q 4006 766 3489 337 
Q 2972 -91 2053 -91 
Q 1656 -91 1267 -14 
Q 878 63 494 219 
L 494 1166 
Q 875 947 1217 837 
Q 1559 728 1863 728 
Q 2300 728 2551 942 
Q 2803 1156 2803 1522 
Q 2803 1891 2551 2103 
Q 2300 2316 1863 2316 
Q 1603 2316 1309 2248 
Q 1016 2181 678 2041 
L 678 4666 
z
" transform="scale(0.015625)"/>
      <path id="DejaVuSans-Bold-8" d="M 4959 1925 
Q 4738 1925 4616 1733 
Q 4494 1541 4494 1184 
Q 4494 825 4614 633 
Q 4734 441 4959 441 
Q 5184 441 5303 633 
Q 5422 825 5422 1184 
Q 5422 1541 5301 1733 
Q 5181 1925 4959 1925 
z
M 4959 2450 
Q 5541 2450 5875 2112 
Q 6209 1775 6209 1184 
Q 6209 594 5875 251 
Q 5541 -91 4959 -91 
Q 4378 -91 4042 251 
Q 3706 594 3706 1184 
Q 3706 1772 4042 2111 
Q 4378 2450 4959 2450 
z
M 2094 -91 
L 1403 -91 
L 4319 4750 
L 5013 4750 
L 2094 -91 
z
M 1453 4750 
Q 2034 4750 2367 4411 
Q 2700 4072 2700 3481 
Q 2700 2891 2367 2550 
Q 2034 2209 1453 2209 
Q 872 2209 539 2550 
Q 206 2891 206 3481 
Q 206 4072 539 4411 
Q 872 4750 1453 4750 
z
M 1453 4225 
Q 1228 4225 1106 4031 
Q 984 3838 984 3481 
Q 984 3122 1106 2926 
Q 1228 2731 1453 2731 
Q 1678 2731 1798 2926 
Q 1919 3122 1919 3481 
Q 1919 3838 1797 4031 
Q 1675 4225 1453 4225 
z
" transform="scale(0.015625)"/>
     </defs>
     <use xlink:href="#DejaVuSans-Bold-e"/>
     <use xlink:href="#DejaVuSans-Bold-14" transform="translate(83.796875 0)"/>
     <use xlink:href="#DejaVuSans-Bold-18" transform="translate(153.375 0)"/>
     <use xlink:href="#DejaVuSans-Bold-8" transform="translate(222.953125 0)"/>
    </g>
   </g>
   <g id="text_41">
    <!-- +19% -->
    <g style="fill: #1f77b4" transform="translate(650.81173 282.271061) scale(0.09 -0.09)">
     <defs>
      <path id="DejaVuSans-Bold-1c" d="M 641 103 
L 641 966 
Q 928 831 1190 764 
Q 1453 697 1709 697 
Q 2247 697 2547 995 
Q 2847 1294 2900 1881 
Q 2688 1725 2447 1647 
Q 2206 1569 1925 1569 
Q 1209 1569 770 1986 
Q 331 2403 331 3084 
Q 331 3838 820 4291 
Q 1309 4744 2131 4744 
Q 3044 4744 3544 4128 
Q 4044 3513 4044 2388 
Q 4044 1231 3459 570 
Q 2875 -91 1856 -91 
Q 1528 -91 1228 -42 
Q 928 6 641 103 
z
M 2125 2350 
Q 2441 2350 2600 2554 
Q 2759 2759 2759 3169 
Q 2759 3575 2600 3781 
Q 2441 3988 2125 3988 
Q 1809 3988 1650 3781 
Q 1491 3575 1491 3169 
Q 1491 2759 1650 2554 
Q 1809 2350 2125 2350 
z
" transform="scale(0.015625)"/>
     </defs>
     <use xlink:href="#DejaVuSans-Bold-e"/>
     <use xlink:href="#DejaVuSans-Bold-14" transform="translate(83.796875 0)"/>
     <use xlink:href="#DejaVuSans-Bold-1c" transform="translate(153.375 0)"/>
     <use xlink:href="#DejaVuSans-Bold-8" transform="translate(222.953125 0)"/>
    </g>
   </g>
   <g id="text_42">
    <!-- +20% -->
    <g style="fill: #1f77b4" transform="translate(748.628523 281.29233) scale(0.09 -0.09)">
     <defs>
      <path id="DejaVuSans-Bold-15" d="M 1844 884 
L 3897 884 
L 3897 0 
L 506 0 
L 506 884 
L 2209 2388 
Q 2438 2594 2547 2791 
Q 2656 2988 2656 3200 
Q 2656 3528 2436 3728 
Q 2216 3928 1850 3928 
Q 1569 3928 1234 3808 
Q 900 3688 519 3450 
L 519 4475 
Q 925 4609 1322 4679 
Q 1719 4750 2100 4750 
Q 2938 4750 3402 4381 
Q 3866 4013 3866 3353 
Q 3866 2972 3669 2642 
Q 3472 2313 2841 1759 
L 1844 884 
z
" transform="scale(0.015625)"/>
      <path id="DejaVuSans-Bold-13" d="M 2944 2338 
Q 2944 3213 2780 3570 
Q 2616 3928 2228 3928 
Q 1841 3928 1675 3570 
Q 1509 3213 1509 2338 
Q 1509 1453 1675 1090 
Q 1841 728 2228 728 
Q 2613 728 2778 1090 
Q 2944 1453 2944 2338 
z
M 4147 2328 
Q 4147 1169 3647 539 
Q 3147 -91 2228 -91 
Q 1306 -91 806 539 
Q 306 1169 306 2328 
Q 306 3491 806 4120 
Q 1306 4750 2228 4750 
Q 3147 4750 3647 4120 
Q 4147 3491 4147 2328 
z
" transform="scale(0.015625)"/>
     </defs>
     <use xlink:href="#DejaVuSans-Bold-e"/>
     <use xlink:href="#DejaVuSans-Bold-15" transform="translate(83.796875 0)"/>
     <use xlink:href="#DejaVuSans-Bold-13" transform="translate(153.375 0)"/>
     <use xlink:href="#DejaVuSans-Bold-8" transform="translate(222.953125 0)"/>
    </g>
   </g>
   <g id="text_43">
    <!-- +21% -->
    <g style="fill: #1f77b4" transform="translate(846.445316 275.643992) scale(0.09 -0.09)">
     <use xlink:href="#DejaVuSans-Bold-e"/>
     <use xlink:href="#DejaVuSans-Bold-15" transform="translate(83.796875 0)"/>
     <use xlink:href="#DejaVuSans-Bold-14" transform="translate(153.375 0)"/>
     <use xlink:href="#DejaVuSans-Bold-8" transform="translate(222.953125 0)"/>
    </g>
   </g>
   <g id="text_44">
    <!-- +12% -->
    <g style="fill: #2ca02c" transform="translate(603.859669 323.404182) scale(0.09 -0.09)">
     <use xlink:href="#DejaVuSans-Bold-e"/>
     <use xlink:href="#DejaVuSans-Bold-14" transform="translate(83.796875 0)"/>
     <use xlink:href="#DejaVuSans-Bold-15" transform="translate(153.375 0)"/>
     <use xlink:href="#DejaVuSans-Bold-8" transform="translate(222.953125 0)"/>
    </g>
   </g>
   <g id="text_45">
    <!-- +22% -->
    <g style="fill: #2ca02c" transform="translate(701.676462 270.182796) scale(0.09 -0.09)">
     <use xlink:href="#DejaVuSans-Bold-e"/>
     <use xlink:href="#DejaVuSans-Bold-15" transform="translate(83.796875 0)"/>
     <use xlink:href="#DejaVuSans-Bold-15" transform="translate(153.375 0)"/>
     <use xlink:href="#DejaVuSans-Bold-8" transform="translate(222.953125 0)"/>
    </g>
   </g>
   <g id="text_46">
    <!-- +41% -->
    <g style="fill: #2ca02c" transform="translate(799.493255 163.178732) scale(0.09 -0.09)">
     <defs>
      <path id="DejaVuSans-Bold-17" d="M 2356 3675 
L 1038 1722 
L 2356 1722 
L 2356 3675 
z
M 2156 4666 
L 3494 4666 
L 3494 1722 
L 4159 1722 
L 4159 850 
L 3494 850 
L 3494 0 
L 2356 0 
L 2356 850 
L 288 850 
L 288 1881 
L 2156 4666 
z
" transform="scale(0.015625)"/>
     </defs>
     <use xlink:href="#DejaVuSans-Bold-e"/>
     <use xlink:href="#DejaVuSans-Bold-17" transform="translate(83.796875 0)"/>
     <use xlink:href="#DejaVuSans-Bold-14" transform="translate(153.375 0)"/>
     <use xlink:href="#DejaVuSans-Bold-8" transform="translate(222.953125 0)"/>
    </g>
   </g>
   <g id="text_47">
    <!-- +51% -->
    <g style="fill: #2ca02c" transform="translate(897.310048 110.79565) scale(0.09 -0.09)">
     <use xlink:href="#DejaVuSans-Bold-e"/>
     <use xlink:href="#DejaVuSans-Bold-18" transform="translate(83.796875 0)"/>
     <use xlink:href="#DejaVuSans-Bold-14" transform="translate(153.375 0)"/>
     <use xlink:href="#DejaVuSans-Bold-8" transform="translate(222.953125 0)"/>
    </g>
   </g>
   <g id="text_48">
    <!-- (b) pass-back's gain, by baseline -->
    <g transform="translate(522.34561 57.844117) scale(0.115 -0.115)">
     <defs>
      <path id="DejaVuSans-a" d="M 1147 4666 
L 1147 2931 
L 616 2931 
L 616 4666 
L 1147 4666 
z
" transform="scale(0.015625)"/>
     </defs>
     <use xlink:href="#DejaVuSans-b"/>
     <use xlink:href="#DejaVuSans-45" transform="translate(39.015625 0)"/>
     <use xlink:href="#DejaVuSans-c" transform="translate(102.5 0)"/>
     <use xlink:href="#DejaVuSans-3" transform="translate(141.515625 0)"/>
     <use xlink:href="#DejaVuSans-53" transform="translate(173.296875 0)"/>
     <use xlink:href="#DejaVuSans-44" transform="translate(236.78125 0)"/>
     <use xlink:href="#DejaVuSans-56" transform="translate(298.0625 0)"/>
     <use xlink:href="#DejaVuSans-56" transform="translate(350.15625 0)"/>
     <use xlink:href="#DejaVuSans-10" transform="translate(402.25 0)"/>
     <use xlink:href="#DejaVuSans-45" transform="translate(438.328125 0)"/>
     <use xlink:href="#DejaVuSans-44" transform="translate(501.8125 0)"/>
     <use xlink:href="#DejaVuSans-46" transform="translate(563.09375 0)"/>
     <use xlink:href="#DejaVuSans-4e" transform="translate(618.078125 0)"/>
     <use xlink:href="#DejaVuSans-a" transform="translate(675.984375 0)"/>
     <use xlink:href="#DejaVuSans-56" transform="translate(703.46875 0)"/>
     <use xlink:href="#DejaVuSans-3" transform="translate(755.5625 0)"/>
     <use xlink:href="#DejaVuSans-4a" transform="translate(787.34375 0)"/>
     <use xlink:href="#DejaVuSans-44" transform="translate(850.828125 0)"/>
     <use xlink:href="#DejaVuSans-4c" transform="translate(912.109375 0)"/>
     <use xlink:href="#DejaVuSans-51" transform="translate(939.890625 0)"/>
     <use xlink:href="#DejaVuSans-f" transform="translate(1003.265625 0)"/>
     <use xlink:href="#DejaVuSans-3" transform="translate(1035.046875 0)"/>
     <use xlink:href="#DejaVuSans-45" transform="translate(1066.828125 0)"/>
     <use xlink:href="#DejaVuSans-5c" transform="translate(1130.3125 0)"/>
     <use xlink:href="#DejaVuSans-3" transform="translate(1189.5 0)"/>
     <use xlink:href="#DejaVuSans-45" transform="translate(1221.28125 0)"/>
     <use xlink:href="#DejaVuSans-44" transform="translate(1284.765625 0)"/>
     <use xlink:href="#DejaVuSans-56" transform="translate(1346.046875 0)"/>
     <use xlink:href="#DejaVuSans-48" transform="translate(1398.140625 0)"/>
     <use xlink:href="#DejaVuSans-4f" transform="translate(1459.671875 0)"/>
     <use xlink:href="#DejaVuSans-4c" transform="translate(1487.453125 0)"/>
     <use xlink:href="#DejaVuSans-51" transform="translate(1515.234375 0)"/>
     <use xlink:href="#DejaVuSans-48" transform="translate(1578.609375 0)"/>
    </g>
   </g>
   <g id="legend_2">
    <g id="patch_36">
     <path d="M 528.99561 100.705602 
L 602.225766 100.705602 
Q 604.125766 100.705602 604.125766 98.805602 
L 604.125766 70.494117 
Q 604.125766 68.594117 602.225766 68.594117 
L 528.99561 68.594117 
Q 527.09561 68.594117 527.09561 70.494117 
L 527.09561 98.805602 
Q 527.09561 100.705602 528.99561 100.705602 
z
" style="fill: #ffffff; opacity: 0.8; stroke: #cccccc; stroke-linejoin: miter"/>
    </g>
    <g id="patch_37">
     <path d="M 530.89561 79.992633 
L 549.89561 79.992633 
L 549.89561 73.342633 
L 530.89561 73.342633 
z
" style="fill: #1f77b4"/>
    </g>
    <g id="text_49">
     <!-- vs `cpu` -->
     <g transform="translate(557.49561 79.992633) scale(0.095 -0.095)">
      <defs>
       <path id="DejaVuSans-59" d="M 191 3500 
L 800 3500 
L 1894 563 
L 2988 3500 
L 3597 3500 
L 2284 0 
L 1503 0 
L 191 3500 
z
" transform="scale(0.015625)"/>
       <path id="DejaVuSans-43" d="M 1147 5119 
L 2028 3950 
L 1550 3950 
L 531 5119 
L 1147 5119 
z
" transform="scale(0.015625)"/>
      </defs>
      <use xlink:href="#DejaVuSans-59"/>
      <use xlink:href="#DejaVuSans-56" transform="translate(59.1875 0)"/>
      <use xlink:href="#DejaVuSans-3" transform="translate(111.28125 0)"/>
      <use xlink:href="#DejaVuSans-43" transform="translate(143.0625 0)"/>
      <use xlink:href="#DejaVuSans-46" transform="translate(193.0625 0)"/>
      <use xlink:href="#DejaVuSans-53" transform="translate(248.046875 0)"/>
      <use xlink:href="#DejaVuSans-58" transform="translate(311.53125 0)"/>
      <use xlink:href="#DejaVuSans-43" transform="translate(374.90625 0)"/>
     </g>
    </g>
    <g id="patch_38">
     <path d="M 530.89561 94.623375 
L 549.89561 94.623375 
L 549.89561 87.973375 
L 530.89561 87.973375 
z
" style="fill: #2ca02c"/>
    </g>
    <g id="text_50">
     <!-- vs `pcie` -->
     <g transform="translate(557.49561 94.623375) scale(0.095 -0.095)">
      <use xlink:href="#DejaVuSans-59"/>
      <use xlink:href="#DejaVuSans-56" transform="translate(59.1875 0)"/>
      <use xlink:href="#DejaVuSans-3" transform="translate(111.28125 0)"/>
      <use xlink:href="#DejaVuSans-43" transform="translate(143.0625 0)"/>
      <use xlink:href="#DejaVuSans-53" transform="translate(193.0625 0)"/>
      <use xlink:href="#DejaVuSans-46" transform="translate(256.546875 0)"/>
      <use xlink:href="#DejaVuSans-4c" transform="translate(311.53125 0)"/>
      <use xlink:href="#DejaVuSans-48" transform="translate(339.3125 0)"/>
      <use xlink:href="#DejaVuSans-43" transform="translate(400.84375 0)"/>
     </g>
    </g>
   </g>
  </g>
  <g id="text_51">
   <!-- Offload pass-back vs quant at one size — gfx1201, 2026-10-02, pinned gpu_offload_probe prompt, greedy, 128 tokens -->
   <g transform="translate(125.197812 16.318125) scale(0.12 -0.12)">
    <defs>
     <path id="DejaVuSans-32" d="M 2522 4238 
Q 1834 4238 1429 3725 
Q 1025 3213 1025 2328 
Q 1025 1447 1429 934 
Q 1834 422 2522 422 
Q 3209 422 3611 934 
Q 4013 1447 4013 2328 
Q 4013 3213 3611 3725 
Q 3209 4238 2522 4238 
z
M 2522 4750 
Q 3503 4750 4090 4092 
Q 4678 3434 4678 2328 
Q 4678 1225 4090 567 
Q 3503 -91 2522 -91 
Q 1538 -91 948 565 
Q 359 1222 359 2328 
Q 359 3434 948 4092 
Q 1538 4750 2522 4750 
z
" transform="scale(0.015625)"/>
     <path id="DejaVuSans-13b2" d="M 2375 4863 
L 2375 4384 
L 1825 4384 
Q 1516 4384 1394 4259 
Q 1275 4134 1275 3809 
L 1275 3500 
L 2853 3500 
L 2853 3744 
Q 2853 4328 3125 4595 
Q 3397 4863 3988 4863 
L 5588 4863 
L 5588 0 
L 5009 0 
L 5009 4384 
L 3981 4384 
Q 3672 4384 3551 4259 
Q 3431 4134 3431 3809 
L 3431 3500 
L 4378 3500 
L 4378 3053 
L 3431 3053 
L 3431 0 
L 2853 0 
L 2853 3053 
L 1275 3053 
L 1275 0 
L 697 0 
L 697 3053 
L 147 3053 
L 147 3500 
L 697 3500 
L 697 3744 
Q 697 4328 969 4595 
Q 1241 4863 1831 4863 
L 2375 4863 
z
" transform="scale(0.015625)"/>
     <path id="DejaVuSans-5b" d="M 3513 3500 
L 2247 1797 
L 3578 0 
L 2900 0 
L 1881 1375 
L 863 0 
L 184 0 
L 1544 1831 
L 300 3500 
L 978 3500 
L 1906 2253 
L 2834 3500 
L 3513 3500 
z
" transform="scale(0.015625)"/>
     <path id="DejaVuSans-42" d="M 3263 -1063 
L 3263 -1509 
L -63 -1509 
L -63 -1063 
L 3263 -1063 
z
" transform="scale(0.015625)"/>
     <path id="DejaVuSans-55" d="M 2631 2963 
Q 2534 3019 2420 3045 
Q 2306 3072 2169 3072 
Q 1681 3072 1420 2755 
Q 1159 2438 1159 1844 
L 1159 0 
L 581 0 
L 581 3500 
L 1159 3500 
L 1159 2956 
Q 1341 3275 1631 3429 
Q 1922 3584 2338 3584 
Q 2397 3584 2469 3576 
Q 2541 3569 2628 3553 
L 2631 2963 
z
" transform="scale(0.015625)"/>
    </defs>
    <use xlink:href="#DejaVuSans-32"/>
    <use xlink:href="#DejaVuSans-13b2" transform="translate(78.71875 0)"/>
    <use xlink:href="#DejaVuSans-52" transform="translate(175.40625 0)"/>
    <use xlink:href="#DejaVuSans-44" transform="translate(236.59375 0)"/>
    <use xlink:href="#DejaVuSans-47" transform="translate(297.875 0)"/>
    <use xlink:href="#DejaVuSans-3" transform="translate(361.359375 0)"/>
    <use xlink:href="#DejaVuSans-53" transform="translate(393.140625 0)"/>
    <use xlink:href="#DejaVuSans-44" transform="translate(456.625 0)"/>
    <use xlink:href="#DejaVuSans-56" transform="translate(517.90625 0)"/>
    <use xlink:href="#DejaVuSans-56" transform="translate(570 0)"/>
    <use xlink:href="#DejaVuSans-10" transform="translate(622.09375 0)"/>
    <use xlink:href="#DejaVuSans-45" transform="translate(658.171875 0)"/>
    <use xlink:href="#DejaVuSans-44" transform="translate(721.65625 0)"/>
    <use xlink:href="#DejaVuSans-46" transform="translate(782.9375 0)"/>
    <use xlink:href="#DejaVuSans-4e" transform="translate(837.921875 0)"/>
    <use xlink:href="#DejaVuSans-3" transform="translate(895.828125 0)"/>
    <use xlink:href="#DejaVuSans-59" transform="translate(927.609375 0)"/>
    <use xlink:href="#DejaVuSans-56" transform="translate(986.796875 0)"/>
    <use xlink:href="#DejaVuSans-3" transform="translate(1038.890625 0)"/>
    <use xlink:href="#DejaVuSans-54" transform="translate(1070.671875 0)"/>
    <use xlink:href="#DejaVuSans-58" transform="translate(1134.15625 0)"/>
    <use xlink:href="#DejaVuSans-44" transform="translate(1197.53125 0)"/>
    <use xlink:href="#DejaVuSans-51" transform="translate(1258.8125 0)"/>
    <use xlink:href="#DejaVuSans-57" transform="translate(1322.1875 0)"/>
    <use xlink:href="#DejaVuSans-3" transform="translate(1361.390625 0)"/>
    <use xlink:href="#DejaVuSans-44" transform="translate(1393.171875 0)"/>
    <use xlink:href="#DejaVuSans-57" transform="translate(1454.453125 0)"/>
    <use xlink:href="#DejaVuSans-3" transform="translate(1493.65625 0)"/>
    <use xlink:href="#DejaVuSans-52" transform="translate(1525.4375 0)"/>
    <use xlink:href="#DejaVuSans-51" transform="translate(1586.625 0)"/>
    <use xlink:href="#DejaVuSans-48" transform="translate(1650 0)"/>
    <use xlink:href="#DejaVuSans-3" transform="translate(1711.53125 0)"/>
    <use xlink:href="#DejaVuSans-56" transform="translate(1743.3125 0)"/>
    <use xlink:href="#DejaVuSans-4c" transform="translate(1795.40625 0)"/>
    <use xlink:href="#DejaVuSans-5d" transform="translate(1823.1875 0)"/>
    <use xlink:href="#DejaVuSans-48" transform="translate(1875.671875 0)"/>
    <use xlink:href="#DejaVuSans-3" transform="translate(1937.203125 0)"/>
    <use xlink:href="#DejaVuSans-af6" transform="translate(1968.984375 0)"/>
    <use xlink:href="#DejaVuSans-3" transform="translate(2068.984375 0)"/>
    <use xlink:href="#DejaVuSans-4a" transform="translate(2100.765625 0)"/>
    <use xlink:href="#DejaVuSans-49" transform="translate(2164.25 0)"/>
    <use xlink:href="#DejaVuSans-5b" transform="translate(2199.453125 0)"/>
    <use xlink:href="#DejaVuSans-14" transform="translate(2258.640625 0)"/>
    <use xlink:href="#DejaVuSans-15" transform="translate(2322.265625 0)"/>
    <use xlink:href="#DejaVuSans-13" transform="translate(2385.890625 0)"/>
    <use xlink:href="#DejaVuSans-14" transform="translate(2449.515625 0)"/>
    <use xlink:href="#DejaVuSans-f" transform="translate(2513.140625 0)"/>
    <use xlink:href="#DejaVuSans-3" transform="translate(2544.921875 0)"/>
    <use xlink:href="#DejaVuSans-15" transform="translate(2576.703125 0)"/>
    <use xlink:href="#DejaVuSans-13" transform="translate(2640.328125 0)"/>
    <use xlink:href="#DejaVuSans-15" transform="translate(2703.953125 0)"/>
    <use xlink:href="#DejaVuSans-19" transform="translate(2767.578125 0)"/>
    <use xlink:href="#DejaVuSans-10" transform="translate(2831.203125 0)"/>
    <use xlink:href="#DejaVuSans-14" transform="translate(2867.28125 0)"/>
    <use xlink:href="#DejaVuSans-13" transform="translate(2930.90625 0)"/>
    <use xlink:href="#DejaVuSans-10" transform="translate(2994.53125 0)"/>
    <use xlink:href="#DejaVuSans-13" transform="translate(3030.609375 0)"/>
    <use xlink:href="#DejaVuSans-15" transform="translate(3094.234375 0)"/>
    <use xlink:href="#DejaVuSans-f" transform="translate(3157.859375 0)"/>
    <use xlink:href="#DejaVuSans-3" transform="translate(3189.640625 0)"/>
    <use xlink:href="#DejaVuSans-53" transform="translate(3221.421875 0)"/>
    <use xlink:href="#DejaVuSans-4c" transform="translate(3284.90625 0)"/>
    <use xlink:href="#DejaVuSans-51" transform="translate(3312.6875 0)"/>
    <use xlink:href="#DejaVuSans-51" transform="translate(3376.0625 0)"/>
    <use xlink:href="#DejaVuSans-48" transform="translate(3439.4375 0)"/>
    <use xlink:href="#DejaVuSans-47" transform="translate(3500.96875 0)"/>
    <use xlink:href="#DejaVuSans-3" transform="translate(3564.453125 0)"/>
    <use xlink:href="#DejaVuSans-4a" transform="translate(3596.234375 0)"/>
    <use xlink:href="#DejaVuSans-53" transform="translate(3659.71875 0)"/>
    <use xlink:href="#DejaVuSans-58" transform="translate(3723.203125 0)"/>
    <use xlink:href="#DejaVuSans-42" transform="translate(3786.578125 0)"/>
    <use xlink:href="#DejaVuSans-52" transform="translate(3836.578125 0)"/>
    <use xlink:href="#DejaVuSans-13b2" transform="translate(3897.765625 0)"/>
    <use xlink:href="#DejaVuSans-52" transform="translate(3994.453125 0)"/>
    <use xlink:href="#DejaVuSans-44" transform="translate(4055.640625 0)"/>
    <use xlink:href="#DejaVuSans-47" transform="translate(4116.921875 0)"/>
    <use xlink:href="#DejaVuSans-42" transform="translate(4180.40625 0)"/>
    <use xlink:href="#DejaVuSans-53" transform="translate(4230.40625 0)"/>
    <use xlink:href="#DejaVuSans-55" transform="translate(4293.890625 0)"/>
    <use xlink:href="#DejaVuSans-52" transform="translate(4332.796875 0)"/>
    <use xlink:href="#DejaVuSans-45" transform="translate(4393.984375 0)"/>
    <use xlink:href="#DejaVuSans-48" transform="translate(4457.46875 0)"/>
    <use xlink:href="#DejaVuSans-3" transform="translate(4519 0)"/>
    <use xlink:href="#DejaVuSans-53" transform="translate(4550.78125 0)"/>
    <use xlink:href="#DejaVuSans-55" transform="translate(4614.265625 0)"/>
    <use xlink:href="#DejaVuSans-52" transform="translate(4653.171875 0)"/>
    <use xlink:href="#DejaVuSans-50" transform="translate(4714.359375 0)"/>
    <use xlink:href="#DejaVuSans-53" transform="translate(4811.765625 0)"/>
    <use xlink:href="#DejaVuSans-57" transform="translate(4875.25 0)"/>
    <use xlink:href="#DejaVuSans-f" transform="translate(4914.453125 0)"/>
    <use xlink:href="#DejaVuSans-3" transform="translate(4946.234375 0)"/>
    <use xlink:href="#DejaVuSans-4a" transform="translate(4978.015625 0)"/>
    <use xlink:href="#DejaVuSans-55" transform="translate(5041.5 0)"/>
    <use xlink:href="#DejaVuSans-48" transform="translate(5080.40625 0)"/>
    <use xlink:href="#DejaVuSans-48" transform="translate(5141.9375 0)"/>
    <use xlink:href="#DejaVuSans-47" transform="translate(5203.46875 0)"/>
    <use xlink:href="#DejaVuSans-5c" transform="translate(5266.953125 0)"/>
    <use xlink:href="#DejaVuSans-f" transform="translate(5326.140625 0)"/>
    <use xlink:href="#DejaVuSans-3" transform="translate(5357.921875 0)"/>
    <use xlink:href="#DejaVuSans-14" transform="translate(5389.703125 0)"/>
    <use xlink:href="#DejaVuSans-15" transform="translate(5453.328125 0)"/>
    <use xlink:href="#DejaVuSans-1b" transform="translate(5516.953125 0)"/>
    <use xlink:href="#DejaVuSans-3" transform="translate(5580.578125 0)"/>
    <use xlink:href="#DejaVuSans-57" transform="translate(5612.359375 0)"/>
    <use xlink:href="#DejaVuSans-52" transform="translate(5651.5625 0)"/>
    <use xlink:href="#DejaVuSans-4e" transform="translate(5712.75 0)"/>
    <use xlink:href="#DejaVuSans-48" transform="translate(5767.09375 0)"/>
    <use xlink:href="#DejaVuSans-51" transform="translate(5828.625 0)"/>
    <use xlink:href="#DejaVuSans-56" transform="translate(5892 0)"/>
   </g>
  </g>
 </g>
 <defs>
  <clipPath id="p7e61152c4c">
   <rect x="40.925781" y="63.844117" width="434.697827" height="312.611719"/>
  </clipPath>
  <clipPath id="pcc2d77dec3">
   <rect x="522.34561" y="63.844117" width="434.697827" height="312.611719"/>
  </clipPath>
 </defs>
</svg>
